<?xml version="1.0" encoding="UTF-8" standalone="no"?>
<!-- Created with Inkscape (http://www.inkscape.org/) -->

<svg
   version="1.1"
   id="svg2"
   width="666.66669"
   height="666.66669"
   viewBox="0 0 666.66669 666.66669"
   sodipodi:docname="4105860_2176774.eps"
   xmlns:inkscape="http://www.inkscape.org/namespaces/inkscape"
   xmlns:sodipodi="http://sodipodi.sourceforge.net/DTD/sodipodi-0.dtd"
   xmlns="http://www.w3.org/2000/svg"
   xmlns:svg="http://www.w3.org/2000/svg">
  <defs
     id="defs6" />
  <sodipodi:namedview
     id="namedview4"
     pagecolor="#ffffff"
     bordercolor="#000000"
     borderopacity="0.25"
     inkscape:showpageshadow="2"
     inkscape:pageopacity="0.0"
     inkscape:pagecheckerboard="0"
     inkscape:deskcolor="#d1d1d1" />
  <g
     id="g8"
     inkscape:groupmode="layer"
     inkscape:label="ink_ext_XXXXXX"
     transform="matrix(1.3333333,0,0,-1.3333333,0,666.66667)">
    <g
       id="g10"
       transform="scale(0.1)">
      <path
         d="M 0,0 H 5000 V 5000 H 0 Z"
         style="fill:#ffffff;fill-opacity:1;fill-rule:nonzero;stroke:none"
         id="path12" />
      <path
         d="m 4037.82,1323.52 c -1.14,2.75 -2.58,5.38 -4.34,7.83 -8.36,11.7 -22.8,17.97 -37.11,17.97 -10,0 -19.93,-3.06 -27.69,-9.45 33.14,44.88 84.38,243.79 -73.09,331.46 -66.81,37.19 -128.2,51.43 -181.4,51.43 -103.96,0 -176.7,-54.36 -197.86,-98.11 -11.33,45.32 -51.05,82.95 -90.69,105.69 v 1895.99 c 0,53.8 -43.61,97.41 -97.41,97.41 h -253.74 c -12.86,15.96 -32.58,26.16 -54.69,26.16 h -416.25 c 0,30.84 0,89.43 0,108.51 0,55.14 -44.7,99.83 -99.84,99.83 -53.78,0 -97.64,-42.53 -99.75,-95.8 0,-0.02 0,-0.04 0,-0.06 0,-0.07 -0.01,-0.14 -0.01,-0.21 0,-0.03 0,-0.05 0,-0.08 -0.01,-0.07 -0.01,-0.14 -0.01,-0.2 0,-0.03 0,-0.06 0,-0.08 -0.01,-0.14 -0.01,-0.28 -0.02,-0.42 0,-0.02 0,-0.04 0,-0.05 0,-0.05 0,-0.11 0,-0.16 0,-0.05 0,-0.09 -0.01,-0.14 0,-0.04 0,-0.1 0,-0.15 0,-0.05 0,-0.09 0,-0.14 0,-0.05 0,-0.1 -0.01,-0.15 0,-0.05 0,-0.11 0,-0.16 0,-0.04 0,-0.09 0,-0.13 0,-0.07 0,-0.14 -0.01,-0.2 0,-0.04 0,-0.08 0,-0.12 0,-0.09 0,-0.17 0,-0.27 0,-0.03 0,-0.07 0,-0.1 0,-0.06 0,-0.13 0,-0.19 0,-0.04 -0.01,-0.08 -0.01,-0.12 0,-0.07 0,-0.13 0,-0.19 0,-0.04 0,-0.08 0,-0.11 0,-0.07 0,-0.13 0,-0.2 0,-0.03 0,-0.07 0,-0.1 0,-0.1 0,-0.2 0,-0.3 v 0 -108.51 H 1949.7 c -22.04,0 -41.76,-10.19 -54.63,-26.16 h -253.76 c -53.8,0 -97.41,-43.61 -97.41,-97.41 V 1988.65 c -150.57,199.03 -256.49,431.76 -301.38,677.26 l -13.71,-2.51 c 46.46,-253.75 157.37,-493.84 315.09,-697.69 v -191.66 c -16.45,-15.97 -28.55,-35.45 -33.72,-58.5 -7.26,-32.38 -4.72,-75.34 -35.37,-88.06 -4.9,-2.03 -9.77,-2.91 -14.62,-2.91 -24.89,0 -49.38,23.05 -75.14,31.69 -6.23,2.09 -12.57,3.06 -18.86,3.06 -45.5,0 -88.8,-50.7 -73.61,-95.7 7.86,-23.3 27.58,-43.59 25.94,-68.12 -1.97,-29.51 -34.42,-46.54 -64.75,-46.54 -4.01,0 -7.99,0.3 -11.85,0.9 -33.08,5.19 -62.28,24.51 -94.73,32.76 -7.73,1.97 -16,3 -24.27,3 -26.46,0 -52.91,-10.52 -61.59,-34.5 -10.21,-28.22 7.41,-66.13 -14.75,-86.37 -9.5,-8.66 -23.24,-10.45 -36.03,-11.67 -42.82,-4.06 -86.277,-8.68 -129.109,-13.76 -84.023,-0.48 -144.394,-0.79 -174.253,-0.79 -220.973,0 -545.668,16.89 -483.856,216.81 91.133,294.73 602.129,425.22 518.645,652.59 -75.711,206.18 63.582,387.86 253.796,540.16 190.607,152.61 398.767,121.91 310.527,535.31 -99.06,464.13 240.89,447.84 433.84,627.48 281.99,262.54 424.68,411.62 733.98,419.34 6.81,0.17 13.66,0.26 20.69,0.26 435.5,0 1272.91,-325.92 1381.3,-734.15 50.15,-188.87 46.83,-410.41 230.66,-526.84 80.68,-51.1 171.05,-73.18 261.71,-105.31 184.48,-65.38 261.16,-207.93 259.04,-347.88 -5.18,-342.2 -240.51,-352.45 -166.48,-618.02 51.7,-185.46 222.59,-280.46 156.47,-463.08 -58.08,-160.42 -326.88,-203.97 -579.69,-211.69 m -37.83,1481.1 -126.67,-701.39 90.22,-16.29 121.78,674.3 0.05,-0.01 4.88,27.02 -0.05,0.01 0.01,0.06 v 0 l 13.47,74.58 c 0.12,0.69 0.18,1.38 0.19,2.07 0.01,5.55 -3.96,10.49 -9.62,11.51 l -67.21,12.14 c -0.7,0.13 -1.4,0.19 -2.09,0.19 -5.55,0 -10.47,-3.97 -11.49,-9.62 v 0 l -13.47,-74.57 m -1496.28,996.5 c -30.93,0 -56,25.07 -56,56.01 0,28.38 21.1,51.82 48.46,55.51 -0.28,-0.12 -0.57,-0.23 -0.87,-0.35 2.77,0.42 5.53,0.85 8.41,0.85 3.81,0 7.53,-0.38 11.12,-1.1 25.61,-5.16 44.9,-27.78 44.9,-54.91 0,-17.04 -9.62,-33.93 -21.62,-44.2 0.01,0 0.01,0 0.02,0 -9.5,-7.4 -21.44,-11.81 -34.42,-11.81"
         style="fill:#eefafe;fill-opacity:1;fill-rule:nonzero;stroke:none"
         id="path14" />
      <path
         d="m 4700.08,2083.75 c -159.05,-370.2 -465.7,-672.57 -833.21,-836.42 l 5.68,-12.72 c 370.65,165.3 679.76,470.01 840.33,843.64 l -12.8,5.5"
         style="fill:#caeefc;fill-opacity:1;fill-rule:nonzero;stroke:none"
         id="path16" />
      <path
         d="m 4659.57,1982.06 c 55.81,46.45 94,113.57 105.44,185.27 2.8,17.58 3.37,37.6 -8.44,50.91 -3.25,3.66 -7.54,6.68 -12.41,7.17 -7.84,0.8 -14.74,-4.97 -19.98,-10.86 -27.75,-31.19 -37.39,-74.34 -42.15,-115.83 -4.77,-41.48 -13.85,-71.92 -22.46,-116.66"
         style="fill:#caeefc;fill-opacity:1;fill-rule:nonzero;stroke:none"
         id="path18" />
      <path
         d="m 4583.69,1855.36 c 32.81,64.77 41.25,141.53 23.31,211.89 -4.4,17.25 -11.81,35.85 -27.94,43.38 -4.43,2.08 -9.57,3.15 -14.23,1.67 -7.51,-2.38 -11.56,-10.41 -14.03,-17.89 -13.11,-39.65 -4.84,-83.08 7.23,-123.05 12.08,-39.98 15.82,-71.51 25.66,-116"
         style="fill:#caeefc;fill-opacity:1;fill-rule:nonzero;stroke:none"
         id="path20" />
      <path
         d="m 4472.02,1699.5 c 40.48,60.28 58.25,135.43 49.04,207.46 -2.25,17.65 -7.34,37.02 -22.42,46.47 -4.14,2.59 -9.12,4.29 -13.92,3.39 -7.75,-1.44 -12.75,-8.92 -16.12,-16.04 -17.85,-37.75 -14.96,-81.86 -7.86,-123.01 7.1,-41.15 6.96,-72.91 11.28,-118.27"
         style="fill:#caeefc;fill-opacity:1;fill-rule:nonzero;stroke:none"
         id="path22" />
      <path
         d="m 4343.69,1562.93 c 40.48,60.28 58.25,135.43 49.04,207.46 -2.25,17.65 -7.34,37.02 -22.42,46.47 -4.15,2.6 -9.12,4.29 -13.93,3.4 -7.74,-1.45 -12.74,-8.93 -16.11,-16.05 -17.86,-37.74 -14.96,-81.86 -7.86,-123.01 7.1,-41.15 6.95,-72.91 11.28,-118.27"
         style="fill:#caeefc;fill-opacity:1;fill-rule:nonzero;stroke:none"
         id="path24" />
      <path
         d="m 4151.47,1405.32 c 46.5,55.76 71.96,128.67 70.26,201.26 -0.41,17.79 -3.46,37.59 -17.49,48.55 -3.85,3.01 -8.62,5.21 -13.5,4.82 -7.85,-0.64 -13.59,-7.55 -17.68,-14.29 -21.67,-35.69 -23.36,-79.87 -20.56,-121.53 2.79,-41.67 -0.64,-73.24 -1.03,-118.81"
         style="fill:#caeefc;fill-opacity:1;fill-rule:nonzero;stroke:none"
         id="path26" />
      <path
         d="m 4000.87,1304.65 c 45.75,49.64 75.29,118.89 81.55,191.14 1.53,17.71 1.02,37.73 -9.83,50.32 -2.98,3.46 -6.83,6.23 -11.05,6.44 -6.79,0.33 -12.44,-5.83 -16.66,-12.02 -22.35,-32.77 -28.49,-76.41 -30.51,-118.1 -2.03,-41.7 -8.32,-72.61 -13.5,-117.78"
         style="fill:#caeefc;fill-opacity:1;fill-rule:nonzero;stroke:none"
         id="path28" />
      <path
         d="m 4545.67,1799.56 c 73.65,-12.14 153.1,3.1 219.32,42.08 16.23,9.55 33.05,22.46 36.49,40.46 0.94,4.95 0.7,10.28 -1.99,14.37 -4.33,6.58 -13.45,8.07 -21.62,8.19 -43.28,0.64 -84.88,-20.68 -122.01,-44.66 -37.14,-23.98 -67.93,-37.26 -110.19,-60.44"
         style="fill:#caeefc;fill-opacity:1;fill-rule:nonzero;stroke:none"
         id="path30" />
      <path
         d="m 4455.44,1681.63 c 68.62,-29.37 149.41,-33.54 223.02,-11.5 18.04,5.41 37.46,13.92 45.09,30.58 2.1,4.58 3.14,9.82 1.51,14.43 -2.63,7.43 -11.14,11.05 -19.04,13.12 -41.88,10.95 -87.37,0.17 -129.15,-14.25 -41.79,-14.41 -74.86,-19.96 -121.43,-32.38"
         style="fill:#caeefc;fill-opacity:1;fill-rule:nonzero;stroke:none"
         id="path32" />
      <path
         d="m 4320.65,1544.09 c 61.36,-42.51 139.69,-62.75 216.22,-55.88 18.75,1.68 39.48,6.15 50.29,20.94 2.98,4.07 5.04,8.99 4.37,13.83 -1.1,7.81 -8.71,13.06 -16.04,16.66 -38.84,19.12 -85.56,17.66 -129.38,11.89 -43.83,-5.77 -77.34,-4.59 -125.46,-7.44"
         style="fill:#caeefc;fill-opacity:1;fill-rule:nonzero;stroke:none"
         id="path34" />
      <path
         d="m 4132.1,1385.26 c 69.25,-27.84 150.12,-30.2 223.22,-6.53 17.91,5.8 37.14,14.75 44.4,31.57 2,4.63 2.92,9.89 1.18,14.46 -2.79,7.37 -11.38,10.8 -19.32,12.69 -42.12,10.02 -87.35,-1.76 -128.8,-17.11 -41.46,-15.34 -74.4,-21.62 -120.68,-35.08"
         style="fill:#caeefc;fill-opacity:1;fill-rule:nonzero;stroke:none"
         id="path36" />
      <path
         d="m 3979.64,1294.23 c 49.31,-56.03 120.45,-94.55 196.38,-106.32 18.61,-2.88 39.8,-3.55 53.86,8.21 3.86,3.23 7.06,7.51 7.57,12.37 0.82,7.84 -5.3,14.77 -11.55,20.03 -33.09,27.91 -78.79,37.75 -122.71,42.71 -43.93,4.96 -76.17,14.18 -123.55,23"
         style="fill:#caeefc;fill-opacity:1;fill-rule:nonzero;stroke:none"
         id="path38" />
      <path
         d="m 3802.86,2863.4 c -1.96,0.11 -3.58,1.66 -3.72,3.67 l -1.4,19.89 c -0.16,2.17 1.48,4.06 3.66,4.21 2.15,0.21 4.05,-1.48 4.21,-3.66 l 1.4,-19.89 c 0.15,-2.17 -1.48,-4.06 -3.66,-4.21 l -0.49,-0.01"
         style="fill:#639fd7;fill-opacity:1;fill-rule:nonzero;stroke:none"
         id="path40" />
      <path
         d="m 3892.21,1959.48 -52.57,-3.7 -58.49,847.58 26.28,1.85 26.29,1.84 58.49,-847.57"
         style="fill:#caeefc;fill-opacity:1;fill-rule:nonzero;stroke:none"
         id="path42" />
      <path
         d="m 3807.83,2875.59 -10.62,-0.75 -16.06,-71.48 52.57,3.69 -25.89,68.54"
         style="fill:#caeefc;fill-opacity:1;fill-rule:nonzero;stroke:none"
         id="path44" />
      <path
         d="m 1228.81,2663.4 c 93.96,-513.2 451.46,-970.39 926.86,-1185.33 l 5.74,12.7 c -471.08,212.87 -825.9,666.63 -918.89,1175.14 l -13.71,-2.51"
         style="fill:#caeefc;fill-opacity:1;fill-rule:nonzero;stroke:none"
         id="path46" />
      <path
         d="m 1259.33,2557.74 c -44.04,57.73 -66.31,131.68 -61.47,204.12 1.19,17.76 5.1,37.4 19.58,47.74 3.98,2.85 8.84,4.84 13.7,4.23 7.81,-0.97 13.25,-8.13 17.04,-15.04 20.11,-36.6 19.88,-80.8 15.28,-122.31 -4.61,-41.5 -2.55,-73.2 -4.13,-118.74"
         style="fill:#caeefc;fill-opacity:1;fill-rule:nonzero;stroke:none"
         id="path48" />
      <path
         d="m 1305.06,2417.31 c -17.54,70.46 -8.66,147.18 24.52,211.76 8.13,15.83 19.51,32.31 36.9,36.06 4.78,1.03 10.04,0.94 14.25,-1.55 6.8,-3.99 8.94,-12.72 9.69,-20.57 3.94,-41.57 -13.8,-82.06 -34.49,-118.33 -20.68,-36.28 -31.36,-66.19 -50.87,-107.37"
         style="fill:#caeefc;fill-opacity:1;fill-rule:nonzero;stroke:none"
         id="path50" />
      <path
         d="m 1379.16,2240.48 c -26.02,67.79 -26.59,145.01 -1.55,213.17 6.13,16.71 15.41,34.46 32.22,40.3 4.62,1.61 9.84,2.15 14.33,0.21 7.23,-3.14 10.43,-11.54 12.13,-19.23 8.99,-40.78 -3.67,-83.14 -19.76,-121.67 -16.1,-38.53 -23.04,-69.53 -37.37,-112.78"
         style="fill:#caeefc;fill-opacity:1;fill-rule:nonzero;stroke:none"
         id="path52" />
      <path
         d="m 1473.81,2078.74 c -26.02,67.78 -26.58,145.01 -1.55,213.17 6.14,16.7 15.41,34.45 32.22,40.3 4.62,1.61 9.85,2.15 14.33,0.2 7.23,-3.13 10.43,-11.53 12.13,-19.23 8.99,-40.78 -3.67,-83.13 -19.76,-121.67 -16.1,-38.53 -23.04,-69.52 -37.37,-112.77"
         style="fill:#caeefc;fill-opacity:1;fill-rule:nonzero;stroke:none"
         id="path54" />
      <path
         d="m 1626.05,1882.24 c -32.9,64.72 -41.46,141.47 -23.62,211.86 4.37,17.25 11.76,35.86 27.87,43.42 4.43,2.08 9.57,3.16 14.24,1.69 7.51,-2.37 11.57,-10.39 14.05,-17.87 13.17,-39.63 4.97,-83.07 -7.05,-123.06 -12.02,-39.99 -15.71,-71.54 -25.49,-116.04"
         style="fill:#caeefc;fill-opacity:1;fill-rule:nonzero;stroke:none"
         id="path56" />
      <path
         d="m 1750.41,1750.52 c -33.52,58.59 -46.88,132.68 -36.87,204.51 2.45,17.61 7.42,37.01 20.79,46.87 3.68,2.71 8.05,4.55 12.21,3.81 6.7,-1.2 10.83,-8.46 13.56,-15.43 14.48,-36.93 10.74,-80.84 3.42,-121.94 -7.32,-41.09 -8.08,-72.63 -13.11,-117.82"
         style="fill:#caeefc;fill-opacity:1;fill-rule:nonzero;stroke:none"
         id="path58" />
      <path
         d="m 1329.68,2354.45 c -74.51,4.58 -148.56,37.16 -204.42,89.91 -13.69,12.93 -27.21,29.27 -26.55,47.58 0.18,5.03 1.61,10.18 5.14,13.57 5.69,5.45 14.91,4.86 22.9,3.16 42.34,-9.02 78.13,-39.09 108.99,-70.74 30.86,-31.65 57.91,-51.46 93.94,-83.48"
         style="fill:#caeefc;fill-opacity:1;fill-rule:nonzero;stroke:none"
         id="path60" />
      <path
         d="m 1391.34,2219.36 c -73.44,-13.33 -153.13,0.63 -219.97,38.52 -16.38,9.29 -33.41,21.92 -37.14,39.87 -1.02,4.93 -0.87,10.27 1.75,14.4 4.22,6.65 13.32,8.28 21.49,8.54 43.26,1.34 85.2,-19.31 122.72,-42.68 37.52,-23.37 68.52,-36.15 111.15,-58.65"
         style="fill:#caeefc;fill-opacity:1;fill-rule:nonzero;stroke:none"
         id="path62" />
      <path
         d="m 1492.07,2055.23 c -69.3,-27.75 -150.16,-30.02 -223.23,-6.26 -17.91,5.82 -37.12,14.79 -44.36,31.63 -1.99,4.62 -2.91,9.88 -1.17,14.46 2.8,7.36 11.39,10.78 19.34,12.66 42.12,9.97 87.34,-1.87 128.78,-17.26 41.44,-15.4 74.37,-21.72 120.64,-35.23"
         style="fill:#caeefc;fill-opacity:1;fill-rule:nonzero;stroke:none"
         id="path64" />
      <path
         d="m 1640.46,1858.36 c -73.72,-11.69 -153.08,4.03 -219.05,43.41 -16.18,9.65 -32.92,22.65 -36.25,40.67 -0.91,4.96 -0.64,10.29 2.07,14.36 4.37,6.56 13.5,7.99 21.67,8.06 43.29,0.38 84.75,-21.19 121.74,-45.39 37,-24.21 67.7,-37.67 109.82,-61.11"
         style="fill:#caeefc;fill-opacity:1;fill-rule:nonzero;stroke:none"
         id="path66" />
      <path
         d="m 1768.79,1735.63 c -60.57,-43.63 -138.5,-65.31 -215.15,-59.86 -18.78,1.34 -39.59,5.42 -50.67,20.01 -3.05,4.01 -5.21,8.9 -4.62,13.75 0.95,7.83 8.46,13.21 15.72,16.95 38.49,19.83 85.22,19.23 129.15,14.28 43.92,-4.96 77.41,-3.16 125.57,-5.13"
         style="fill:#caeefc;fill-opacity:1;fill-rule:nonzero;stroke:none"
         id="path68" />
      <path
         d="m 314.781,1944.37 c 22.957,1.05 45.922,1.57 68.883,1.57 493.508,0.04 983.316,-240.07 1282.646,-633 l 11.08,8.44 c -302.18,396.53 -795.718,638.45 -1293.726,638.49 -23.168,0 -46.348,-0.53 -69.516,-1.58 l 0.633,-13.92"
         style="fill:#caeefc;fill-opacity:1;fill-rule:nonzero;stroke:none"
         id="path70" />
      <path
         d="m 423.961,1952.28 c -66.145,29.96 -143.203,35.04 -212.711,14.05 -17.039,-5.15 -35.301,-13.37 -42.121,-29.8 -1.875,-4.52 -2.727,-9.7 -1.047,-14.3 2.707,-7.4 10.902,-11.09 18.484,-13.23 40.18,-11.37 83.211,-1.22 122.618,12.59 39.41,13.81 70.757,18.92 114.777,30.69"
         style="fill:#caeefc;fill-opacity:1;fill-rule:nonzero;stroke:none"
         id="path72" />
      <path
         d="m 571.074,1939.27 c -72.597,1.27 -145.355,-24.62 -200.84,-71.46 -13.597,-11.48 -27.101,-26.27 -26.847,-44.06 0.07,-4.89 1.343,-9.99 4.707,-13.54 5.422,-5.72 14.41,-5.86 22.222,-4.82 41.395,5.5 76.868,31.88 107.567,60.19 30.703,28.31 57.453,45.43 93.191,73.69"
         style="fill:#caeefc;fill-opacity:1;fill-rule:nonzero;stroke:none"
         id="path74" />
      <path
         d="m 760.031,1906.78 c -71.898,10.13 -147.273,-6.66 -208.066,-46.37 -14.902,-9.73 -30.113,-22.76 -32.035,-40.45 -0.528,-4.86 0.113,-10.08 3.015,-14.01 4.684,-6.34 13.586,-7.57 21.465,-7.5 41.758,0.4 80.192,22.25 114.121,46.59 33.934,24.34 62.574,38.06 101.5,61.74"
         style="fill:#caeefc;fill-opacity:1;fill-rule:nonzero;stroke:none"
         id="path76" />
      <path
         d="m 938.902,1850.89 c -71.898,10.13 -147.273,-6.67 -208.066,-46.38 -14.902,-9.73 -30.113,-22.75 -32.035,-40.45 -0.528,-4.86 0.113,-10.08 3.019,-14.01 4.68,-6.34 13.582,-7.57 21.465,-7.5 41.754,0.4 80.188,22.25 114.117,46.59 33.934,24.34 62.575,38.06 101.5,61.75"
         style="fill:#caeefc;fill-opacity:1;fill-rule:nonzero;stroke:none"
         id="path78" />
      <path
         d="m 1164.58,1746.67 c -70.46,17.53 -147.17,8.62 -211.752,-24.57 -15.828,-8.13 -32.308,-19.51 -36.051,-36.91 -1.031,-4.79 -0.929,-10.04 1.551,-14.25 3.996,-6.79 12.727,-8.94 20.57,-9.68 41.575,-3.93 82.062,13.82 118.332,34.51 36.27,20.7 66.18,31.38 107.35,50.9"
         style="fill:#caeefc;fill-opacity:1;fill-rule:nonzero;stroke:none"
         id="path80" />
      <path
         d="m 1320.87,1655.08 c -64.63,19.51 -139.83,15.88 -207.57,-10.01 -16.61,-6.34 -34.39,-15.54 -41,-30.79 -1.81,-4.19 -2.62,-8.86 -0.97,-12.75 2.67,-6.26 10.68,-8.65 18.08,-9.75 39.24,-5.82 81.19,7.7 119.59,24.06 38.4,16.37 68.96,24.19 111.87,39.24"
         style="fill:#caeefc;fill-opacity:1;fill-rule:nonzero;stroke:none"
         id="path82" />
      <path
         d="m 637.863,1929.4 c -21.203,71.57 -69.582,136.41 -133.539,178.99 -15.676,10.44 -34.625,19.95 -52.32,15.19 -4.867,-1.31 -9.563,-3.85 -12.066,-8.06 -4.04,-6.76 -1.391,-15.62 2.062,-23.02 18.301,-39.23 55.637,-67.36 93.41,-90.31 37.778,-22.96 63.16,-44.87 102.453,-72.79"
         style="fill:#caeefc;fill-opacity:1;fill-rule:nonzero;stroke:none"
         id="path84" />
      <path
         d="m 783.348,1899.66 c -3.508,74.56 -35.008,149.08 -86.95,205.69 -12.73,13.88 -28.867,27.64 -47.187,27.24 -5.035,-0.11 -10.203,-1.46 -13.641,-4.94 -5.535,-5.61 -5.078,-14.84 -3.492,-22.85 8.406,-42.47 37.949,-78.69 69.152,-110 31.204,-31.32 50.622,-58.65 82.118,-95.14"
         style="fill:#caeefc;fill-opacity:1;fill-rule:nonzero;stroke:none"
         id="path86" />
      <path
         d="m 965.906,1838.38 c 11.485,73.75 -4.472,153.06 -44.039,218.93 -9.695,16.14 -22.754,32.85 -40.781,36.12 -4.957,0.9 -10.289,0.61 -14.356,-2.11 -6.546,-4.39 -7.945,-13.52 -7.996,-21.69 -0.254,-43.29 21.442,-84.69 45.75,-121.61 24.309,-36.92 37.868,-67.59 61.422,-109.64"
         style="fill:#caeefc;fill-opacity:1;fill-rule:nonzero;stroke:none"
         id="path88" />
      <path
         d="m 1191.08,1738 c -5.16,74.46 -38.31,148.26 -91.5,203.71 -13.04,13.59 -29.47,26.98 -47.78,26.17 -5.03,-0.22 -10.17,-1.68 -13.53,-5.24 -5.41,-5.73 -4.74,-14.95 -2.98,-22.92 9.35,-42.27 39.69,-77.83 71.58,-108.44 31.89,-30.61 51.91,-57.51 84.21,-93.28"
         style="fill:#caeefc;fill-opacity:1;fill-rule:nonzero;stroke:none"
         id="path90" />
      <path
         d="m 1339.5,1640.52 c 28.91,68.82 32.54,149.64 10,223.09 -5.52,18.01 -14.17,37.36 -30.88,44.89 -4.59,2.07 -9.83,3.07 -14.43,1.41 -7.41,-2.68 -10.98,-11.21 -12.99,-19.13 -10.68,-41.95 0.4,-87.36 15.1,-129.05 14.7,-41.69 20.47,-74.72 33.2,-121.21"
         style="fill:#caeefc;fill-opacity:1;fill-rule:nonzero;stroke:none"
         id="path92" />
      <path
         d="m 1954.03,1731.81 c -75.15,70.28 -181.3,106.12 -283.66,95.78 -69.33,-7 -144.93,-44.05 -160.19,-112.04 -7.26,-32.38 -4.72,-75.34 -35.37,-88.06 -30,-12.45 -58.97,18.45 -89.76,28.78 -51.27,17.19 -109.76,-41.41 -92.47,-92.64 7.86,-23.3 27.58,-43.59 25.94,-68.12 -2.23,-33.41 -43.52,-50.83 -76.6,-45.64 -33.08,5.19 -62.28,24.51 -94.73,32.76 -32.44,8.26 -74.46,-0.02 -85.86,-31.5 -10.21,-28.22 7.41,-66.13 -14.75,-86.37 -9.5,-8.66 -23.24,-10.45 -36.03,-11.67 -280.945,-26.67 -590.351,-77.07 -558.913,-126.98 8.593,-13.64 30.562,-9.3 46.683,-9.05 597.98,9.36 1141.15,18.28 1738.92,-0.06 l -283.21,514.81"
         style="fill:#caeefc;fill-opacity:1;fill-rule:nonzero;stroke:none"
         id="path94" />
      <path
         d="m 3635.44,2671.1 177.27,-695.12 -33.72,-8.6 -219.33,684.39"
         style="fill:#99d6f4;fill-opacity:1;fill-rule:nonzero;stroke:none"
         id="path96" />
      <path
         d="m 3385.74,2991.14 c -56.98,-14.53 -87.62,-88.06 -68.28,-163.89 19.34,-75.84 81.45,-125.72 138.43,-111.19 56.98,14.53 87.61,88.06 68.27,163.9 -19.34,75.84 -81.44,125.71 -138.42,111.18 z m 85.66,-335.9 c -90.52,-23.09 -186.86,47.12 -214.76,156.5 -27.89,109.37 23.07,217.14 113.59,240.22 90.52,23.09 186.86,-47.12 214.75,-156.49 27.9,-109.38 -23.06,-217.15 -113.58,-240.23"
         style="fill:#a8e3fa;fill-opacity:1;fill-rule:nonzero;stroke:none"
         id="path98" />
      <path
         d="m 3564.6,2848.42 c 2.94,-11.53 53.9,-211.36 53.9,-211.36 2.71,-10.63 -3.71,-21.45 -14.34,-24.16 -10.63,-2.71 -21.44,3.71 -24.16,14.34 l -6.08,23.87 c 0,0 -28.31,60.37 -106.56,35.48 0,0 93.34,11.66 96.51,11.43 3.16,-0.23 -2.21,161.93 0.73,150.4"
         style="fill:#c8edfc;fill-opacity:1;fill-rule:nonzero;stroke:none"
         id="path100" />
      <path
         d="m 3611.91,2582.49 c -27.38,-6.98 -55.33,9.61 -62.31,36.99 0,0 -3.23,16.63 -9.7,25.82 -10.14,14.39 -30.81,19.8 -68.64,10.16 l -9.58,53.43 c 19.89,6.36 34.19,15.95 50.18,14.83 8.57,1.05 15.69,1.9 21.64,2.6 -0.06,16.37 -0.38,37.96 -0.63,54.5 -0.24,17.58 22.57,37.35 22.51,49.98 -0.08,22.65 -23.32,45.54 4.8,49.31 l 27.66,3.67 61.07,-238.97 c 6.98,-27.38 -9.62,-55.34 -37,-62.32"
         style="fill:#a8e3fa;fill-opacity:1;fill-rule:nonzero;stroke:none"
         id="path102" />
      <path
         d="m 3661.54,2677.4 0.52,-717.37 34.8,0.03 42.88,717.4"
         style="fill:#99d6f4;fill-opacity:1;fill-rule:nonzero;stroke:none"
         id="path104" />
      <path
         d="m 3717.59,2907.32 c 0.06,-78.27 47.96,-141.91 106.76,-141.87 58.8,0.05 106.61,63.76 106.55,142.02 -0.05,78.27 -47.95,141.91 -106.76,141.87 -58.8,-0.04 -106.61,-63.75 -106.55,-142.02 z m -62.77,-0.05 c -0.08,112.88 75.86,204.77 169.28,204.84 93.41,0.07 169.49,-91.71 169.57,-204.59 0.08,-112.88 -75.86,-204.77 -169.27,-204.84 -93.42,-0.06 -169.5,91.71 -169.58,204.59"
         style="fill:#a8e3fa;fill-opacity:1;fill-rule:nonzero;stroke:none"
         id="path106" />
      <path
         d="m 3686.23,2866.74 c 0.01,-11.9 0.16,-218.12 0.16,-218.12 0.01,-10.98 8.91,-19.86 19.88,-19.86 10.97,0.02 19.86,8.91 19.85,19.89 l -0.02,24.63 c 0,0 12.46,65.5 94.44,60.78 0,0 -93.31,-11.83 -96.33,-12.84 -3.01,-1.01 -37.99,157.42 -37.98,145.52"
         style="fill:#c8edfc;fill-opacity:1;fill-rule:nonzero;stroke:none"
         id="path108" />
      <path
         d="m 3706.29,2597.38 c 28.26,0.02 51.23,23.03 51.21,51.28 0,0 -0.99,16.92 3,27.42 6.25,16.46 24.94,26.82 63.98,26.85 l -3.96,54.14 c -20.85,1.24 -37.07,6.98 -52.29,1.94 -8.56,-1.11 -15.67,-2.05 -21.62,-2.85 -3.99,15.87 -9.03,36.87 -12.89,52.95 -4.12,17.1 -31.12,30.6 -34.19,42.84 -5.54,21.98 11.3,49.91 -16.87,46.59 l -27.71,-3.29 0.06,-246.66 c 0.02,-28.26 23.03,-51.23 51.28,-51.21"
         style="fill:#a8e3fa;fill-opacity:1;fill-rule:nonzero;stroke:none"
         id="path110" />
      <path
         d="m 3963.54,2086.94 -90.22,16.29 140.14,775.96 c 1.14,6.36 7.23,10.58 13.58,9.43 l 67.21,-12.14 c 6.35,-1.15 10.58,-7.23 9.43,-13.58 l -140.14,-775.96"
         style="fill:#99d6f4;fill-opacity:1;fill-rule:nonzero;stroke:none"
         id="path112" />
      <path
         d="m 4090.21,2788.32 -90.22,16.3 13.47,74.57 c 1.14,6.36 7.23,10.58 13.58,9.43 l 67.21,-12.14 c 6.35,-1.15 10.58,-7.23 9.43,-13.58 l -13.47,-74.58"
         style="fill:#f35d8d;fill-opacity:1;fill-rule:nonzero;stroke:none"
         id="path114" />
      <path
         d="m 4085.37,2761.23 -0.05,0.01 4.88,27.02 0.05,-0.01 -4.88,-27.02"
         style="fill:#a6cfeb;fill-opacity:1;fill-rule:nonzero;stroke:none"
         id="path116" />
      <path
         d="m 4085.32,2761.24 -90.18,16.29 4.88,27.01 90.18,-16.28 -4.88,-27.02"
         style="fill:#7dbce9;fill-opacity:1;fill-rule:nonzero;stroke:none"
         id="path118" />
      <path
         d="m 4034.2,1909.01 -147.23,58.03 313.97,796.58 147.23,-58.03 -313.97,-796.58"
         style="fill:#caeefc;fill-opacity:1;fill-rule:nonzero;stroke:none"
         id="path120" />
      <path
         d="m 4286.88,2692.33 48.53,-19.13 5.1,12.96 -48.52,19.13"
         style="fill:#d2f0fa;fill-opacity:1;fill-rule:nonzero;stroke:none"
         id="path122" />
      <path
         d="m 4270.57,2650.95 48.53,-19.12 5.11,12.96 -48.53,19.12"
         style="fill:#d2f0fa;fill-opacity:1;fill-rule:nonzero;stroke:none"
         id="path124" />
      <path
         d="m 4254.26,2609.58 48.53,-19.13 5.11,12.96 -48.53,19.13"
         style="fill:#d2f0fa;fill-opacity:1;fill-rule:nonzero;stroke:none"
         id="path126" />
      <path
         d="m 4214.22,2577.56 72.26,-28.48 5.11,12.95 -72.27,28.49"
         style="fill:#d2f0fa;fill-opacity:1;fill-rule:nonzero;stroke:none"
         id="path128" />
      <path
         d="m 4221.65,2526.83 48.52,-19.13 5.11,12.96 -48.53,19.12"
         style="fill:#d2f0fa;fill-opacity:1;fill-rule:nonzero;stroke:none"
         id="path130" />
      <path
         d="m 4205.34,2485.45 48.53,-19.13 5.1,12.96 -48.52,19.13"
         style="fill:#d2f0fa;fill-opacity:1;fill-rule:nonzero;stroke:none"
         id="path132" />
      <path
         d="m 4189.03,2444.07 48.53,-19.12 5.1,12.96 -48.52,19.12"
         style="fill:#d2f0fa;fill-opacity:1;fill-rule:nonzero;stroke:none"
         id="path134" />
      <path
         d="m 4148.98,2412.05 72.27,-28.48 5.11,12.96 -72.27,28.48"
         style="fill:#d2f0fa;fill-opacity:1;fill-rule:nonzero;stroke:none"
         id="path136" />
      <path
         d="m 4156.41,2361.32 48.53,-19.13 5.11,12.96 -48.53,19.13"
         style="fill:#d2f0fa;fill-opacity:1;fill-rule:nonzero;stroke:none"
         id="path138" />
      <path
         d="m 4140.11,2319.94 48.52,-19.12 5.11,12.96 -48.53,19.12"
         style="fill:#d2f0fa;fill-opacity:1;fill-rule:nonzero;stroke:none"
         id="path140" />
      <path
         d="m 4123.8,2278.57 48.52,-19.13 5.11,12.96 -48.52,19.13"
         style="fill:#d2f0fa;fill-opacity:1;fill-rule:nonzero;stroke:none"
         id="path142" />
      <path
         d="m 4083.75,2246.55 72.26,-28.48 5.11,12.95 -72.26,28.49"
         style="fill:#d2f0fa;fill-opacity:1;fill-rule:nonzero;stroke:none"
         id="path144" />
      <path
         d="m 4091.18,2195.82 48.53,-19.13 5.1,12.96 -48.52,19.13"
         style="fill:#d2f0fa;fill-opacity:1;fill-rule:nonzero;stroke:none"
         id="path146" />
      <path
         d="m 4074.87,2154.44 48.53,-19.13 5.11,12.96 -48.53,19.13"
         style="fill:#d2f0fa;fill-opacity:1;fill-rule:nonzero;stroke:none"
         id="path148" />
      <path
         d="m 4058.56,2113.06 48.53,-19.12 5.11,12.96 -48.53,19.12"
         style="fill:#d2f0fa;fill-opacity:1;fill-rule:nonzero;stroke:none"
         id="path150" />
      <path
         d="m 4018.52,2081.04 72.26,-28.48 5.11,12.96 -72.27,28.48"
         style="fill:#d2f0fa;fill-opacity:1;fill-rule:nonzero;stroke:none"
         id="path152" />
      <path
         d="m 4025.95,2030.31 48.52,-19.12 5.11,12.95 -48.52,19.13"
         style="fill:#d2f0fa;fill-opacity:1;fill-rule:nonzero;stroke:none"
         id="path154" />
      <path
         d="m 4009.64,1988.94 48.52,-19.13 5.11,12.96 -48.52,19.12"
         style="fill:#d2f0fa;fill-opacity:1;fill-rule:nonzero;stroke:none"
         id="path156" />
      <path
         d="m 3993.33,1947.56 48.53,-19.13 5.1,12.96 -48.52,19.13"
         style="fill:#d2f0fa;fill-opacity:1;fill-rule:nonzero;stroke:none"
         id="path158" />
      <path
         d="m 4141.81,1181.78 h -734.17 l -123.32,1110.64 c -1.57,14.12 9.49,26.47 23.7,26.47 h 933.41 c 14.21,0 25.27,-12.35 23.7,-26.47 L 4141.81,1181.78"
         style="fill:#a8e3fa;fill-opacity:1;fill-rule:nonzero;stroke:none"
         id="path160" />
      <path
         d="m 3221.17,1133.38 c 442.22,-6.02 884.43,-12.05 1326.64,-18.07 14.84,-0.2 61.61,14.27 -18.99,66.25 -68.27,44.02 -284.05,4.41 -284.05,4.41 0,0 50.23,20.14 50,46.13 -0.23,25.99 -19.93,48.83 -43.58,59.61 -23.65,10.78 -50.58,11.56 -76.53,10.07 -52.8,-3.02 -105.09,-14.72 -154.14,-34.49 20.82,12.8 27.16,44.18 12.96,64.06 -14.2,19.88 -45.94,24.06 -64.8,8.52 33.14,44.88 84.38,243.79 -73.09,331.46 -197.38,109.87 -347.28,19.45 -379.26,-46.68 -16.22,64.91 -90.7,114.06 -139.75,126.24 -111.88,27.78 -184.75,19.54 -289.19,-29.23 -36.95,-17.26 -86.42,-76.19 -110.98,-108.74 -38.47,-50.98 -44.46,-118.77 -46.58,-182.6 -1.59,-47.91 -1.81,-95.87 -0.65,-143.79 l 291.99,-153.15"
         style="fill:#d2f0fa;fill-opacity:1;fill-rule:nonzero;stroke:none"
         id="path162" />
      <path
         d="m 2484.77,1021.18 c -549.42,0 -994.81,18.58 -994.81,41.51 0,6.37 34.4,12.4 95.86,17.8 15.75,-10.94 34.87,-17.34 55.49,-17.34 h 1686.92 c 20.62,0 39.74,6.4 55.49,17.34 61.46,-5.4 95.86,-11.43 95.86,-17.8 0,-22.93 -445.39,-41.51 -994.81,-41.51"
         style="fill:#ddf3f7;fill-opacity:1;fill-rule:nonzero;stroke:none"
         id="path164" />
      <path
         d="m 2503.71,3801.12 c -30.93,0 -56,25.07 -56,56.01 0,30.93 25.07,56.01 56,56.01 30.94,0 56.02,-25.08 56.02,-56.01 0,-30.94 -25.08,-56.01 -56.02,-56.01 m 0,157.12 c -55.13,0 -99.83,-44.69 -99.83,-99.83 v -127.95 h 199.67 c 0,0 0,101.62 0,127.95 0,55.14 -44.7,99.83 -99.84,99.83"
         style="fill:#e93654;fill-opacity:1;fill-rule:nonzero;stroke:none"
         id="path166" />
      <path
         d="m 2538.11,3812.93 c 12,10.27 21.62,27.16 21.62,44.2 v 0 c 0,-17.96 -8.46,-33.95 -21.6,-44.2 -0.01,0 -0.01,0 -0.02,0 m -134.23,45.48 c 0,0.1 0,0.2 0,0.3 0,-0.1 0,-0.2 0,-0.3 m 0,0.4 c 0,0.07 0,0.13 0,0.2 0,-0.07 0,-0.14 0,-0.2 m 0,0.31 c 0,0.06 0,0.12 0,0.19 0,-0.07 0,-0.13 0,-0.19 m 0.01,0.31 c 0,0.06 0,0.13 0,0.19 0,-0.06 0,-0.13 0,-0.19 m 0,0.29 c 0,0.1 0,0.18 0,0.27 0,-0.09 0,-0.18 0,-0.27 m 0,0.39 c 0.01,0.06 0.01,0.13 0.01,0.2 0,-0.07 0,-0.14 -0.01,-0.2 m 0.01,0.33 c 0,0.05 0,0.11 0,0.16 0,-0.05 0,-0.11 0,-0.16 m 0.01,0.31 c 0,0.05 0,0.09 0,0.14 0,-0.05 0,-0.09 0,-0.14 m 0,0.29 c 0.01,0.05 0.01,0.09 0.01,0.14 0,-0.05 0,-0.09 -0.01,-0.14 m 0.01,0.3 c 0,0.01 0,0.03 0,0.05 0,-0.02 0,-0.03 0,-0.05 m 0.02,0.47 c 0,0.02 0,0.05 0,0.08 0,-0.03 0,-0.06 0,-0.08 m 0.01,0.28 c 0,0.03 0,0.05 0,0.08 0,-0.03 0,-0.06 0,-0.08 m 0.01,0.29 c 0,0.02 0,0.04 0,0.06 0,-0.02 0,-0.04 0,-0.06 m 110.87,49.66 c -3.59,0.72 -7.31,1.1 -11.12,1.1 -2.88,0 -5.64,-0.43 -8.41,-0.85 0.3,0.12 0.59,0.23 0.87,0.35 2.47,0.33 4.99,0.5 7.54,0.5 3.81,0 7.53,-0.38 11.12,-1.1"
         style="fill:#d099a8;fill-opacity:1;fill-rule:nonzero;stroke:none"
         id="path168" />
      <path
         d="m 2434.38,3749.9 h -30.5 v 108.51 c 0,0.1 0,0.2 0,0.3 0,0.03 0,0.07 0,0.1 0,0.06 0,0.13 0,0.2 0,0.03 0,0.07 0,0.11 0,0.06 0,0.12 0,0.19 0,0.04 0.01,0.08 0.01,0.12 0,0.06 0,0.13 0,0.19 0,0.03 0,0.07 0,0.1 0,0.09 0,0.18 0,0.27 0,0.04 0,0.08 0,0.12 0.01,0.06 0.01,0.13 0.01,0.2 0,0.04 0,0.09 0,0.13 0,0.05 0,0.11 0,0.16 0,0.05 0.01,0.1 0.01,0.15 0,0.05 0,0.09 0,0.14 0,0.05 0,0.1 0,0.15 0.01,0.05 0.01,0.09 0.01,0.14 0,0.05 0,0.11 0,0.16 0,0.02 0,0.03 0,0.05 0.01,0.14 0.01,0.28 0.02,0.42 0,0.02 0,0.05 0,0.08 0,0.06 0,0.13 0.01,0.2 0,0.02 0,0.05 0,0.08 0,0.07 0.01,0.14 0.01,0.21 0,0.02 0,0.04 0,0.06 1.74,43.85 31.81,80.36 72.39,91.91 -26.9,-17.88 -41.97,-48.44 -41.97,-83.16 V 3749.9 m 103.75,63.03 c 13.14,10.25 21.6,26.24 21.6,44.2 v 0 0 c 0,27.13 -19.29,49.75 -44.9,54.91 -3.59,0.72 -7.31,1.1 -11.12,1.1 -2.55,0 -5.07,-0.17 -7.54,-0.5 7.59,3.05 8.46,5.1 21.86,5.1 30.93,0 56.01,-25.08 56.01,-56.02 0,-28.04 -14.31,-43.24 -35.91,-48.79"
         style="fill:#d0334b;fill-opacity:1;fill-rule:nonzero;stroke:none"
         id="path170" />
      <path
         d="M 3328.23,1063.15 H 1641.31 c -53.8,0 -97.41,43.61 -97.41,97.41 v 2465.77 c 0,53.8 43.61,97.41 97.41,97.41 h 1686.92 c 53.8,0 97.41,-43.61 97.41,-97.41 V 1160.56 c 0,-53.8 -43.61,-97.41 -97.41,-97.41"
         style="fill:#4e86ce;fill-opacity:1;fill-rule:nonzero;stroke:none"
         id="path172" />
      <path
         d="M 1652.96,1167.5 H 3316.58 V 3619.39 H 1652.96 Z"
         style="fill:#caeefc;fill-opacity:1;fill-rule:nonzero;stroke:none"
         id="path174" />
      <path
         d="M 1716.93,1242.4 H 3252.61 V 3544.49 H 1716.93 Z"
         style="fill:#ffffff;fill-opacity:1;fill-rule:nonzero;stroke:none"
         id="path176" />
      <path
         d="m 3090,3679.7 v -100 H 1879.5 v 100 c 0,7.3 1.1,14.3 3.2,20.9 8.9,28.6 35.6,49.3 67,49.3 h 1070.1 c 38.8,0 70.2,-31.4 70.2,-70.2"
         style="fill:#e93654;fill-opacity:1;fill-rule:nonzero;stroke:none"
         id="path178" />
      <path
         d="M 3090,3579.7 H 1879.5 v 72.4 c 0,19.4 1.1,35.4 3.2,48.5 8.9,28.6 35.6,49.3 67,49.3 h 8.6 c -18.5,-17.8 -32,-45 -32,-72.8 v -72.4 H 3090 v -25"
         style="fill:#d0334b;fill-opacity:1;fill-rule:nonzero;stroke:none"
         id="path180" />
      <path
         d="m 2392.26,3284.15 h -249.45 c -8.62,0 -15.61,6.98 -15.61,15.6 0,8.62 6.99,15.61 15.61,15.61 h 249.45 c 8.62,0 15.6,-6.99 15.6,-15.61 0,-8.62 -6.98,-15.6 -15.6,-15.6"
         style="fill:#deecf6;fill-opacity:1;fill-rule:nonzero;stroke:none"
         id="path182" />
      <path
         d="m 3141.72,3204.62 h -189.67 c -8.62,0 -15.61,6.99 -15.61,15.61 0,8.62 6.99,15.6 15.61,15.6 h 189.67 c 8.62,0 15.61,-6.98 15.61,-15.6 0,-8.62 -6.99,-15.61 -15.61,-15.61"
         style="fill:#deecf6;fill-opacity:1;fill-rule:nonzero;stroke:none"
         id="path184" />
      <path
         d="m 2869.86,3204.62 h -727.05 c -8.62,0 -15.61,6.99 -15.61,15.61 0,8.62 6.99,15.6 15.61,15.6 h 727.05 c 8.62,0 15.61,-6.98 15.61,-15.6 0,-8.62 -6.99,-15.61 -15.61,-15.61"
         style="fill:#deecf6;fill-opacity:1;fill-rule:nonzero;stroke:none"
         id="path186" />
      <path
         d="m 3141.72,3125.09 h -998.91 c -8.62,0 -15.61,6.99 -15.61,15.61 0,8.62 6.99,15.6 15.61,15.6 h 998.91 c 8.62,0 15.61,-6.98 15.61,-15.6 0,-8.62 -6.99,-15.61 -15.61,-15.61"
         style="fill:#deecf6;fill-opacity:1;fill-rule:nonzero;stroke:none"
         id="path188" />
      <path
         d="m 3141.72,3045.56 h -317.51 c -8.61,0 -15.6,6.99 -15.6,15.61 0,8.62 6.99,15.61 15.6,15.61 h 317.51 c 8.62,0 15.61,-6.99 15.61,-15.61 0,-8.62 -6.99,-15.61 -15.61,-15.61"
         style="fill:#deecf6;fill-opacity:1;fill-rule:nonzero;stroke:none"
         id="path190" />
      <path
         d="m 2745.18,3045.56 h -602.37 c -8.62,0 -15.61,6.99 -15.61,15.61 0,8.62 6.99,15.61 15.61,15.61 h 602.37 c 8.62,0 15.61,-6.99 15.61,-15.61 0,-8.62 -6.99,-15.61 -15.61,-15.61"
         style="fill:#deecf6;fill-opacity:1;fill-rule:nonzero;stroke:none"
         id="path192" />
      <path
         d="m 3141.72,3284.15 h -667.6 c -8.62,0 -15.61,6.98 -15.61,15.6 0,8.62 6.99,15.61 15.61,15.61 h 667.6 c 8.62,0 15.61,-6.99 15.61,-15.61 0,-8.62 -6.99,-15.6 -15.61,-15.6"
         style="fill:#deecf6;fill-opacity:1;fill-rule:nonzero;stroke:none"
         id="path194" />
      <path
         d="m 2392.26,2712.45 h -249.45 c -8.62,0 -15.61,6.99 -15.61,15.61 0,8.62 6.99,15.6 15.61,15.6 h 249.45 c 8.62,0 15.6,-6.98 15.6,-15.6 0,-8.62 -6.98,-15.61 -15.6,-15.61"
         style="fill:#deecf6;fill-opacity:1;fill-rule:nonzero;stroke:none"
         id="path196" />
      <path
         d="m 3141.72,2632.92 h -189.67 c -8.62,0 -15.61,6.99 -15.61,15.61 0,8.62 6.99,15.61 15.61,15.61 h 189.67 c 8.62,0 15.61,-6.99 15.61,-15.61 0,-8.62 -6.99,-15.61 -15.61,-15.61"
         style="fill:#deecf6;fill-opacity:1;fill-rule:nonzero;stroke:none"
         id="path198" />
      <path
         d="m 2869.86,2632.92 h -727.05 c -8.62,0 -15.61,6.99 -15.61,15.61 0,8.62 6.99,15.61 15.61,15.61 h 727.05 c 8.62,0 15.61,-6.99 15.61,-15.61 0,-8.62 -6.99,-15.61 -15.61,-15.61"
         style="fill:#deecf6;fill-opacity:1;fill-rule:nonzero;stroke:none"
         id="path200" />
      <path
         d="m 3141.72,2553.39 h -998.91 c -8.62,0 -15.61,6.99 -15.61,15.61 0,8.62 6.99,15.61 15.61,15.61 h 998.91 c 8.62,0 15.61,-6.99 15.61,-15.61 0,-8.62 -6.99,-15.61 -15.61,-15.61"
         style="fill:#deecf6;fill-opacity:1;fill-rule:nonzero;stroke:none"
         id="path202" />
      <path
         d="m 3141.72,2473.87 h -317.51 c -8.61,0 -15.6,6.98 -15.6,15.6 0,8.62 6.99,15.61 15.6,15.61 h 317.51 c 8.62,0 15.61,-6.99 15.61,-15.61 0,-8.62 -6.99,-15.6 -15.61,-15.6"
         style="fill:#deecf6;fill-opacity:1;fill-rule:nonzero;stroke:none"
         id="path204" />
      <path
         d="m 2745.18,2473.87 h -602.37 c -8.62,0 -15.61,6.98 -15.61,15.6 0,8.62 6.99,15.61 15.61,15.61 h 602.37 c 8.62,0 15.61,-6.99 15.61,-15.61 0,-8.62 -6.99,-15.6 -15.61,-15.6"
         style="fill:#deecf6;fill-opacity:1;fill-rule:nonzero;stroke:none"
         id="path206" />
      <path
         d="m 3141.72,2712.45 h -667.6 c -8.62,0 -15.61,6.99 -15.61,15.61 0,8.62 6.99,15.6 15.61,15.6 h 667.6 c 8.62,0 15.61,-6.98 15.61,-15.6 0,-8.62 -6.99,-15.61 -15.61,-15.61"
         style="fill:#deecf6;fill-opacity:1;fill-rule:nonzero;stroke:none"
         id="path208" />
      <path
         d="m 2392.26,2160.75 h -249.45 c -8.62,0 -15.61,6.99 -15.61,15.61 0,8.62 6.99,15.61 15.61,15.61 h 249.45 c 8.62,0 15.6,-6.99 15.6,-15.61 0,-8.62 -6.98,-15.61 -15.6,-15.61"
         style="fill:#deecf6;fill-opacity:1;fill-rule:nonzero;stroke:none"
         id="path210" />
      <path
         d="m 3141.72,2081.23 h -189.67 c -8.62,0 -15.61,6.98 -15.61,15.6 0,8.62 6.99,15.61 15.61,15.61 h 189.67 c 8.62,0 15.61,-6.99 15.61,-15.61 0,-8.62 -6.99,-15.6 -15.61,-15.6"
         style="fill:#deecf6;fill-opacity:1;fill-rule:nonzero;stroke:none"
         id="path212" />
      <path
         d="m 2869.86,2081.23 h -727.05 c -8.62,0 -15.61,6.98 -15.61,15.6 0,8.62 6.99,15.61 15.61,15.61 h 727.05 c 8.62,0 15.61,-6.99 15.61,-15.61 0,-8.62 -6.99,-15.6 -15.61,-15.6"
         style="fill:#deecf6;fill-opacity:1;fill-rule:nonzero;stroke:none"
         id="path214" />
      <path
         d="m 3141.72,2001.7 h -998.91 c -8.62,0 -15.61,6.99 -15.61,15.6 0,8.62 6.99,15.61 15.61,15.61 h 998.91 c 8.62,0 15.61,-6.99 15.61,-15.61 0,-8.61 -6.99,-15.6 -15.61,-15.6"
         style="fill:#deecf6;fill-opacity:1;fill-rule:nonzero;stroke:none"
         id="path216" />
      <path
         d="m 3141.72,1922.17 h -317.51 c -8.61,0 -15.6,6.99 -15.6,15.61 0,8.62 6.99,15.61 15.6,15.61 h 317.51 c 8.62,0 15.61,-6.99 15.61,-15.61 0,-8.62 -6.99,-15.61 -15.61,-15.61"
         style="fill:#deecf6;fill-opacity:1;fill-rule:nonzero;stroke:none"
         id="path218" />
      <path
         d="m 2745.18,1922.17 h -602.37 c -8.62,0 -15.61,6.99 -15.61,15.61 0,8.62 6.99,15.61 15.61,15.61 h 602.37 c 8.62,0 15.61,-6.99 15.61,-15.61 0,-8.62 -6.99,-15.61 -15.61,-15.61"
         style="fill:#deecf6;fill-opacity:1;fill-rule:nonzero;stroke:none"
         id="path220" />
      <path
         d="m 3141.72,2160.75 h -667.6 c -8.62,0 -15.61,6.99 -15.61,15.61 0,8.62 6.99,15.61 15.61,15.61 h 667.6 c 8.62,0 15.61,-6.99 15.61,-15.61 0,-8.62 -6.99,-15.61 -15.61,-15.61"
         style="fill:#deecf6;fill-opacity:1;fill-rule:nonzero;stroke:none"
         id="path222" />
      <path
         d="m 2392.26,1599.06 h -249.45 c -8.62,0 -15.61,6.99 -15.61,15.6 0,8.63 6.99,15.61 15.61,15.61 h 249.45 c 8.62,0 15.6,-6.98 15.6,-15.61 0,-8.61 -6.98,-15.6 -15.6,-15.6"
         style="fill:#deecf6;fill-opacity:1;fill-rule:nonzero;stroke:none"
         id="path224" />
      <path
         d="m 3141.72,1519.53 h -189.67 c -8.62,0 -15.61,6.99 -15.61,15.61 0,8.62 6.99,15.6 15.61,15.6 h 189.67 c 8.62,0 15.61,-6.98 15.61,-15.6 0,-8.62 -6.99,-15.61 -15.61,-15.61"
         style="fill:#deecf6;fill-opacity:1;fill-rule:nonzero;stroke:none"
         id="path226" />
      <path
         d="m 2869.86,1519.53 h -727.05 c -8.62,0 -15.61,6.99 -15.61,15.61 0,8.62 6.99,15.6 15.61,15.6 h 727.05 c 8.62,0 15.61,-6.98 15.61,-15.6 0,-8.62 -6.99,-15.61 -15.61,-15.61"
         style="fill:#deecf6;fill-opacity:1;fill-rule:nonzero;stroke:none"
         id="path228" />
      <path
         d="m 3141.72,1440 h -998.91 c -8.62,0 -15.61,6.99 -15.61,15.61 0,8.62 6.99,15.61 15.61,15.61 h 998.91 c 8.62,0 15.61,-6.99 15.61,-15.61 0,-8.62 -6.99,-15.61 -15.61,-15.61"
         style="fill:#deecf6;fill-opacity:1;fill-rule:nonzero;stroke:none"
         id="path230" />
      <path
         d="m 3141.72,1360.47 h -317.51 c -8.61,0 -15.6,6.99 -15.6,15.61 0,8.62 6.99,15.61 15.6,15.61 h 317.51 c 8.62,0 15.61,-6.99 15.61,-15.61 0,-8.62 -6.99,-15.61 -15.61,-15.61"
         style="fill:#deecf6;fill-opacity:1;fill-rule:nonzero;stroke:none"
         id="path232" />
      <path
         d="m 2745.18,1360.47 h -602.37 c -8.62,0 -15.61,6.99 -15.61,15.61 0,8.62 6.99,15.61 15.61,15.61 h 602.37 c 8.62,0 15.61,-6.99 15.61,-15.61 0,-8.62 -6.99,-15.61 -15.61,-15.61"
         style="fill:#deecf6;fill-opacity:1;fill-rule:nonzero;stroke:none"
         id="path234" />
      <path
         d="m 3141.72,1599.06 h -667.6 c -8.62,0 -15.61,6.99 -15.61,15.6 0,8.63 6.99,15.61 15.61,15.61 h 667.6 c 8.62,0 15.61,-6.98 15.61,-15.61 0,-8.61 -6.99,-15.6 -15.61,-15.6"
         style="fill:#deecf6;fill-opacity:1;fill-rule:nonzero;stroke:none"
         id="path236" />
      <path
         d="m 2037.56,3095.07 v 5.78 h -186.64 c -8.42,0.02 -15.23,6.82 -15.24,15.24 v 186.64 c 0.01,8.42 6.82,15.22 15.24,15.24 h 186.64 c 8.41,-0.02 15.22,-6.82 15.24,-15.24 v -186.64 c -0.02,-8.41 -6.83,-15.22 -15.24,-15.24 v -5.78 -5.79 c 14.81,0.01 26.8,12 26.8,26.81 v 186.64 c 0,14.81 -11.99,26.8 -26.8,26.81 h -186.64 c -14.81,-0.01 -26.8,-12 -26.81,-26.81 v -186.64 c 0.01,-14.81 12,-26.8 26.81,-26.81 h 186.64 v 5.79"
         style="fill:#4097b8;fill-opacity:1;fill-rule:nonzero;stroke:none"
         id="path238" />
      <path
         d="m 2037.56,2525.23 v 5.78 h -186.64 c -8.42,0.02 -15.23,6.83 -15.24,15.24 v 186.64 c 0.01,8.42 6.82,15.23 15.24,15.24 h 186.64 c 8.41,-0.01 15.22,-6.82 15.24,-15.24 v -186.64 c -0.02,-8.41 -6.83,-15.22 -15.24,-15.24 v -5.78 -5.79 c 14.81,0.01 26.8,12 26.8,26.81 v 186.64 c 0,14.81 -11.99,26.8 -26.8,26.81 h -186.64 c -14.81,-0.01 -26.8,-12 -26.81,-26.81 v -186.64 c 0.01,-14.81 12,-26.8 26.81,-26.81 h 186.64 v 5.79"
         style="fill:#4097b8;fill-opacity:1;fill-rule:nonzero;stroke:none"
         id="path240" />
      <path
         d="m 2037.56,1955.39 v 5.78 h -186.64 c -8.42,0.02 -15.23,6.83 -15.24,15.24 v 186.64 c 0.01,8.42 6.82,15.22 15.24,15.24 h 186.64 c 8.41,-0.02 15.22,-6.82 15.24,-15.24 v -186.64 c -0.02,-8.41 -6.83,-15.22 -15.24,-15.24 v -5.78 -5.78 c 14.81,0 26.8,11.99 26.8,26.8 v 186.64 c 0,14.81 -11.99,26.8 -26.8,26.81 h -186.64 c -14.81,-0.01 -26.8,-12 -26.81,-26.81 v -186.64 c 0.01,-14.81 12,-26.8 26.81,-26.8 h 186.64 v 5.78"
         style="fill:#4097b8;fill-opacity:1;fill-rule:nonzero;stroke:none"
         id="path242" />
      <path
         d="m 2037.56,1385.55 v 5.78 h -186.64 c -8.42,0.02 -15.23,6.83 -15.24,15.24 v 186.64 c 0.01,8.42 6.82,15.22 15.24,15.24 h 186.64 c 8.41,-0.02 15.22,-6.82 15.24,-15.24 v -186.64 c -0.02,-8.41 -6.83,-15.22 -15.24,-15.24 v -5.78 -5.78 c 14.81,0 26.8,11.99 26.8,26.8 v 186.64 c 0,14.81 -11.99,26.8 -26.8,26.81 h -186.64 c -14.81,-0.01 -26.8,-12 -26.81,-26.81 v -186.64 c 0.01,-14.81 12,-26.8 26.81,-26.8 h 186.64 v 5.78"
         style="fill:#4097b8;fill-opacity:1;fill-rule:nonzero;stroke:none"
         id="path244" />
      <path
         d="m 1844.68,3238.6 86.2,-104.09 c 3.55,-4.29 8.9,-6.6 14.46,-6.25 5.55,0.35 10.57,3.32 13.55,8.03 l 165.86,261.69 c 5.12,8.09 2.72,18.81 -5.37,23.94 -8.1,5.13 -18.81,2.72 -23.94,-5.37 l -153.07,-241.52 -70.97,85.71 c -6.11,7.38 -17.05,8.4 -24.43,2.29 -7.38,-6.11 -8.41,-17.05 -2.29,-24.43"
         style="fill:#f89d1c;fill-opacity:1;fill-rule:nonzero;stroke:none"
         id="path246" />
      <path
         d="m 1844.68,2673.5 86.2,-104.09 c 3.55,-4.29 8.9,-6.61 14.46,-6.25 5.55,0.35 10.57,3.32 13.55,8.02 l 165.86,261.69 c 5.12,8.1 2.72,18.82 -5.37,23.95 -8.1,5.13 -18.81,2.72 -23.94,-5.37 l -153.07,-241.52 -70.97,85.7 c -6.11,7.38 -17.05,8.41 -24.43,2.3 -7.38,-6.11 -8.41,-17.05 -2.29,-24.43"
         style="fill:#f89d1c;fill-opacity:1;fill-rule:nonzero;stroke:none"
         id="path248" />
      <path
         d="m 1222.47,2518.64 c 0,0 4.3,-28.54 7.02,-31.03 0,0 -2.73,-4.76 -10.88,-5.21"
         style="fill:#f8a485;fill-opacity:1;fill-rule:nonzero;stroke:none"
         id="path250" />
      <path
         d="m 1197.76,1038.94 c -131.74,0 -238.537,9.62 -238.537,21.49 0,11.86 106.797,21.48 238.537,21.48 131.75,0 238.54,-9.62 238.54,-21.48 0,-11.87 -106.79,-21.49 -238.54,-21.49"
         style="fill:#ddf3f7;fill-opacity:1;fill-rule:nonzero;stroke:none"
         id="path252" />
      <path
         d="m 1306.74,2385.41 -52.71,-231.56 c -1.44,-6.31 2.82,-12.5 9.23,-13.42 l 164.08,-23.57 c 5.72,-0.82 11.1,2.88 12.38,8.51 l 52.72,231.56 c 1.44,6.31 -2.82,12.51 -9.23,13.43 l -164.09,23.56 c -5.71,0.82 -11.1,-2.88 -12.38,-8.51"
         style="fill:#70cdf4;fill-opacity:1;fill-rule:nonzero;stroke:none"
         id="path254" />
      <path
         d="m 1317.01,2377.94 -50.48,-221.7 162.93,-23.4 50.47,221.71 -162.92,23.39"
         style="fill:#eaf8fe;fill-opacity:1;fill-rule:nonzero;stroke:none"
         id="path256" />
      <path
         d="m 1463.08,2341.05 -138.45,19.89 c -1.57,0.22 -3.03,-0.87 -3.25,-2.44 -0.23,-1.57 0.86,-3.02 2.43,-3.25 l 138.45,-19.88 c 1.57,-0.22 3.03,0.87 3.25,2.43 0.23,1.57 -0.86,3.03 -2.43,3.25"
         style="fill:#a8d7f2;fill-opacity:1;fill-rule:nonzero;stroke:none"
         id="path258" />
      <path
         d="m 1458.42,2320.1 -138.45,19.88 c -1.57,0.23 -3.03,-0.86 -3.26,-2.43 -0.22,-1.57 0.87,-3.03 2.44,-3.25 l 138.45,-19.88 c 1.57,-0.23 3.03,0.86 3.25,2.43 0.23,1.57 -0.86,3.02 -2.43,3.25"
         style="fill:#a8d7f2;fill-opacity:1;fill-rule:nonzero;stroke:none"
         id="path260" />
      <path
         d="m 1400.78,2302.73 -86.52,12.42 c -1.57,0.23 -3.03,-0.86 -3.26,-2.43 -0.22,-1.57 0.87,-3.03 2.44,-3.25 l 86.52,-12.43 c 1.57,-0.22 3.03,0.87 3.25,2.44 0.23,1.57 -0.86,3.02 -2.43,3.25"
         style="fill:#a8d7f2;fill-opacity:1;fill-rule:nonzero;stroke:none"
         id="path262" />
      <path
         d="m 1394.63,2284.72 -86.52,12.42 c -1.57,0.23 -3.03,-0.86 -3.26,-2.43 -0.22,-1.57 0.87,-3.03 2.44,-3.25 l 86.52,-12.43 c 1.57,-0.22 3.03,0.87 3.25,2.44 0.23,1.57 -0.86,3.02 -2.43,3.25"
         style="fill:#a8d7f2;fill-opacity:1;fill-rule:nonzero;stroke:none"
         id="path264" />
      <path
         d="m 1388.48,2266.7 -86.52,12.43 c -1.57,0.23 -3.03,-0.86 -3.26,-2.43 -0.22,-1.57 0.87,-3.03 2.44,-3.25 l 86.52,-12.43 c 1.57,-0.22 3.03,0.86 3.25,2.43 0.23,1.57 -0.86,3.03 -2.43,3.25"
         style="fill:#a8d7f2;fill-opacity:1;fill-rule:nonzero;stroke:none"
         id="path266" />
      <path
         d="m 1420.21,2167.17 -86.53,12.42 c -1.57,0.23 -3.02,-0.86 -3.25,-2.43 -0.22,-1.57 0.87,-3.03 2.44,-3.25 l 86.52,-12.43 c 1.57,-0.22 3.02,0.87 3.25,2.44 0.22,1.57 -0.87,3.02 -2.43,3.25"
         style="fill:#a8d7f2;fill-opacity:1;fill-rule:nonzero;stroke:none"
         id="path268" />
      <path
         d="m 1243.6,2151.08 c 9.29,4.38 16.2,12.48 22.81,20.35 6.51,7.76 13.03,15.52 19.55,23.28 2.58,3.07 5.27,6.41 5.56,10.4 -10.93,0.89 -17.97,-13.31 -28.9,-14.15 5.09,18 12.4,35.37 21.71,51.59 2.27,3.96 4.75,8.57 3.13,12.84 -11.81,-4.51 -21.76,-12.91 -30.36,-22.17 -6.05,-6.51 -11.56,-13.52 -16.46,-20.94 -14.42,-21.83 -23.36,-46.88 -29.44,-72.33"
         style="fill:#f29273;fill-opacity:1;fill-rule:nonzero;stroke:none"
         id="path270" />
      <path
         d="m 1196.56,1964.57 -117.16,98.85 c 0,0 -54.52,-73.95 -33.98,-145.3 10.1,-35.08 22.78,-52.48 28.28,-69.12 5.14,-15.55 40.41,-235.69 37.78,-251.79 -2.63,-16.09 -21.57,-61.12 -28.79,-108.48 -8.7,-56.96 -7.22,-242.54 -13.96,-291.74 -6.74,-49.2 38.7,-57.53 41.2,-40.88 21.36,142.28 77.76,364 85.66,435.13 7.89,71.13 4.69,201.39 0.97,373.33"
         style="fill:#f9b291;fill-opacity:1;fill-rule:nonzero;stroke:none"
         id="path272" />
      <path
         d="m 1196.9,1824.37 -50.95,-116.92 c 21.48,-36.29 33.9,-79.12 35.55,-122.55 0.85,-22.55 -1.14,-45.15 -0.51,-67.72 0.04,-1.6 0.27,-3.31 0.68,-4.9 6.83,33.44 11.92,61 13.92,78.96 5.57,50.25 5.6,130.13 3.83,233.25 l -2.52,-0.12"
         style="fill:#f29273;fill-opacity:1;fill-rule:nonzero;stroke:none"
         id="path274" />
      <path
         d="m 1117.82,1201.8 c 0,0 -10.91,-51.62 -7.97,-58.2 2.93,-6.59 13.49,-25.71 24.3,-32.62 11.34,-7.25 36.46,-15.88 38.47,-19.02 2.01,-3.15 2.14,-7.73 -1.45,-10.55 -9.25,-7.27 -25.31,-10.81 -35.81,-9.07 -34.06,5.62 -37.58,20.68 -57.42,23.09 -3.43,0.42 -9.78,-4.65 -19.25,0.2 -9.48,4.85 -14.08,13.61 -13.27,21.85 1.41,14.23 9.4,25.94 15.08,36.46 5.68,10.52 9.69,58.65 9.69,58.65"
         style="fill:#f9b291;fill-opacity:1;fill-rule:nonzero;stroke:none"
         id="path276" />
      <path
         d="m 1173.83,1078.93 c 2.48,4.25 3.11,10.67 0.8,12.24 -3.2,2.18 -14.59,9.72 -21.2,12.76 -6.61,3.05 -17.08,5.73 -13.39,3.73 3.69,-1.99 -3.1,-9.44 -9.29,-9.06 -21.34,1.3 -37.09,15.49 -49.25,18.53 -17.55,4.39 -24.9,25.11 -25.67,28.47 -3.32,-2.11 -11.04,-18.79 -12.61,-24.04 -1.41,-4.74 -3.94,-13.41 -2.6,-18.35 0.93,-3.41 3,-10.28 1.95,-17.5 0,0 3.46,-2.65 12.62,-4.55 5.79,-1.2 13.58,-0.19 13.58,-0.19 l 1.51,11.02 c 0,0 4.78,0.19 10.86,-1.07 6.07,-1.25 16,-7.04 16.58,-7.74 2.44,-2.91 4.39,-8.22 7.62,-9.84 8.53,-4.3 17.13,-6.35 28,-6.99 22.89,-1.33 36.25,5.32 40.49,12.58"
         style="fill:#2b2f75;fill-opacity:1;fill-rule:nonzero;stroke:none"
         id="path278" />
      <path
         d="m 1356.55,1081.07 c -2.52,2.79 -29.66,7.2 -42.39,12.52 -12.13,5.07 -26.82,21.36 -29.68,28.27 -2.86,6.92 -2.21,41.95 -1.84,56.65 2.54,101.32 21.26,348.89 23.97,408.18 4.71,103.05 -8.67,209.42 -48.31,374.86 l -147.65,113.3 c 0,0 -41.34,-76.86 -27.5,-150.36 8.03,-42.64 43.4,-49.2 49.38,-65.77 5.98,-16.57 95.3,-283.76 95.3,-283.76 0,0 -17.37,-57.76 -18.38,-121.05 -0.86,-54.02 23.63,-216.98 28.18,-279.06 0.53,-12.13 2.62,-41.17 -0.95,-50.41 -4.38,-11.33 -15.55,-24.64 -14.99,-38.93 0.33,-8.28 6.32,-16.19 16.78,-19.44 10.46,-3.24 16.29,2.8 19.89,2.95 20.81,0.87 26.58,-13.45 62.51,-13.44 11.09,0.01 27.16,6.13 35.68,14.83 3.29,3.37 2.51,7.88 0,10.66"
         style="fill:#f9b291;fill-opacity:1;fill-rule:nonzero;stroke:none"
         id="path280" />
      <path
         d="m 1359.64,1068.39 c 1.96,4.61 1.7,11.06 -0.9,12.24 -3.62,1.63 -16.44,7.22 -23.69,9.15 -7.24,1.92 -18.43,2.86 -14.34,1.49 4.09,-1.37 -1.87,-9.84 -8.3,-10.48 -22.21,-2.2 -40.46,9.26 -53.44,10.27 -18.73,1.47 -25.6,20.75 -26.87,23.95 -3.13,-2.63 -12.38,-20.39 -13.25,-25.83 -0.79,-4.92 -2.18,-13.9 -0.1,-18.57 1.45,-3.22 4.55,-9.67 4.49,-16.97 0,0 3.94,-2.07 13.66,-2.44 6.15,-0.24 14.05,2.03 14.05,2.03 v 11.14 c 0,0 4.9,0.97 11.35,0.72 6.45,-0.25 14.41,-3.54 18.31,-6.47 3.05,-2.3 6.26,-6.17 9.86,-7.08 10.39,-2.61 17.86,-3.35 29.16,-2.2 23.81,2.42 36.66,11.18 40.01,19.05"
         style="fill:#2b2f75;fill-opacity:1;fill-rule:nonzero;stroke:none"
         id="path282" />
      <path
         d="m 1082.49,2075.85 c -10.02,-11 -45.73,-70.5 -46.11,-118.93 -0.38,-48.43 15.06,-79.93 18.4,-89.6 9.14,-26.47 26.15,-50.14 26.15,-54.98 0,-4.85 26.62,-8.2 83.1,-4.64 104.35,6.57 142.69,26.15 142.69,26.15 0,0 3.41,43.41 -7.29,137.6 -5.08,44.72 -43.17,115.55 -43.17,115.55"
         style="fill:#2b2f75;fill-opacity:1;fill-rule:nonzero;stroke:none"
         id="path284" />
      <path
         d="m 987.281,2269.36 c 0,0 16.809,-83.5 21.219,-98.37 4.41,-14.86 26.21,-109.21 46.88,-107.57 20.67,1.64 133.86,96.14 133.86,96.14 l -16.03,32.06 -99.64,-47.5 c 0,0 -9,107.87 -16.89,133.55"
         style="fill:#f9b291;fill-opacity:1;fill-rule:nonzero;stroke:none"
         id="path286" />
      <path
         d="m 1025.8,2217.95 c 10.55,-37.27 32.17,-76.57 38.63,-105.47 1.3,-5.81 70.29,19.28 70.45,45.19"
         style="fill:#f29273;fill-opacity:1;fill-rule:nonzero;stroke:none"
         id="path288" />
      <path
         d="m 1054.78,2385.11 c 0,0 -33.04,-3.52 -49.79,-16.34 -42.72,-32.68 -9.662,-151.32 -9.662,-151.32 0,0 -2.105,-6.33 26.572,-4.73 28.68,1.61 51.67,9.77 51.67,9.77 l -8.29,97.22"
         style="fill:#e93654;fill-opacity:1;fill-rule:nonzero;stroke:none"
         id="path290" />
      <path
         d="m 1016.96,2317.94 c 0,0 -3.62,-69.74 9,-104.94 12.49,0.24 23.4,3.07 23.4,3.07 l -32.4,101.87"
         style="fill:#b02e3f;fill-opacity:1;fill-rule:nonzero;stroke:none"
         id="path292" />
      <path
         d="m 1212.68,2604.01 c 19.91,-25.82 15.97,-62.12 11.06,-94.34 -2.48,-16.3 -4.96,-32.59 -7.45,-48.88 -1.18,-7.75 -2.75,-16.2 -8.78,-21.2 -6.08,-5.03 -14.77,-4.95 -22.66,-4.61 0.08,-13.48 0.16,-26.97 0.24,-40.45 -23.07,-0.56 -46.15,-0.66 -69.22,-0.28 -0.01,9.44 -2.07,18.88 -5.99,27.47 -11.28,0.22 -18.83,11.54 -23.24,21.92 -5.1,11.98 -8.81,24.5 -12.4,37.02 -4.75,16.61 -9.34,33.48 -9.78,50.75 -0.43,17.28 3.67,35.23 14.64,48.58 7.49,9.1 17.68,15.56 28.13,21.01 14.31,7.47 31.49,13.36 46.25,6.82"
         style="fill:#f9b291;fill-opacity:1;fill-rule:nonzero;stroke:none"
         id="path294" />
      <path
         d="m 1188.81,2481.04 c -2.73,13.56 -2.54,21.21 1.9,30.23 1.48,3 3.42,5.82 6.07,7.68 3.59,2.52 8.35,3.01 12.33,1.28 2.59,-1.13 4.73,-3.24 6.19,-5.78 4.71,18.21 5.7,37.62 4.34,56.53 -2.16,29.99 -20.24,53.17 -46.63,64.01 -48.87,20.08 -119.09,0.24 -138.94,-47.73 -14.99,-36.23 -7.39,-88.53 21.31,-118.9 25.41,-26.89 61.95,-30.84 95.68,-25.3 17.26,2.83 43.89,1.13 52.82,24.6 0.69,1.82 -0.86,3.62 -2.69,3.48 -7.01,-0.54 -11.88,7.39 -12.38,9.9"
         style="fill:#2b2f75;fill-opacity:1;fill-rule:nonzero;stroke:none"
         id="path296" />
      <path
         d="m 1192.56,2544.83 c 1.82,-2.85 1.39,-6.67 3.09,-9.58 2.87,-4.9 6.68,-6.66 11.82,-9.05 8.29,-3.84 6.35,-15.92 6.11,-21.32 6.26,4.16 7.27,15.48 8.79,21.24 1.69,6.46 2.78,13.08 4.66,19.49 1.83,6.24 5,12.11 5.59,18.67 2.02,22.66 -12.19,49.29 -29.37,62.01 -12.51,9.26 -31.6,8.88 -45.73,-0.54 -5.95,-3.96 -10.43,-9.95 -13.06,-16.6 -1.13,-2.86 -1.91,-6.18 -0.51,-8.91"
         style="fill:#2b2f75;fill-opacity:1;fill-rule:nonzero;stroke:none"
         id="path298" />
      <path
         d="m 1081.5,2384.81 c 1.17,7.9 3.31,17.11 10.66,20.23 2.05,0.86 4.29,1.13 6.49,1.37 22.51,2.5 45.17,3.57 67.82,3.2 9.36,-0.15 19.06,-0.62 27.44,-4.81 13.14,-6.57 20.36,-20.73 26.71,-33.98"
         style="fill:#b02e3f;fill-opacity:1;fill-rule:nonzero;stroke:none"
         id="path300" />
      <path
         d="m 1272.18,2095.26 c -3.15,4.65 -10.42,10.22 -13.02,15.34 -6.26,12.3 -11.73,64.06 -9.57,77.28 2.3,14.18 14.85,21.8 20.51,53.35 7.29,40.64 -9.38,72.23 -18.69,85.76 -13.17,19.13 -5.36,19.02 -9.87,42.46 -0.81,4.22 -1.76,8.73 -4.65,11.67 -2.84,2.9 -22.47,11.88 -26.33,12.47 -36.6,5.67 -58.11,1.24 -95.11,-0.38 -18.31,-0.8 -36.59,-2.93 -54.56,-6.9 -19.89,-4.38 -37.22,-9.66 -41.31,-36.65 -6.32,-41.75 -1,-83.95 11.69,-123.55 8.41,-26.24 58.63,-117.03 46.19,-134.6 -2.84,-4.02 -9.96,-11.65 -10.82,-16.66 -3.15,-18.35 38.31,-24.8 56.05,-26.26 27.04,-2.22 58.06,-0.73 85.16,0.54 20.53,0.96 65.44,8.12 68.63,33.49 0.62,4.98 -1.84,9 -4.3,12.64"
         style="fill:#e93654;fill-opacity:1;fill-rule:nonzero;stroke:none"
         id="path302" />
      <path
         d="m 1264.37,2233.38 c 0,-7.38 -4.12,-17.28 -5.46,-21.17 -5.15,-2.64 -25.57,-7.04 -37.29,-1.68 -2.57,24.39 -16.85,71.34 -16.85,71.34 0,0 59.59,-41.66 59.6,-48.49"
         style="fill:#b02e3f;fill-opacity:1;fill-rule:nonzero;stroke:none"
         id="path304" />
      <path
         d="m 1238.15,2250.4 c 0,0 67.61,-163.4 96.94,-163.4 21.34,0 73.66,150.84 73.66,150.84 l -33.06,15.65 -36.86,-63.17 -37.33,117.81"
         style="fill:#f9b291;fill-opacity:1;fill-rule:nonzero;stroke:none"
         id="path306" />
      <path
         d="m 1369.13,2242.24 c 0,0 10.96,17.26 10.16,29.5 -0.31,4.67 -3.08,26.88 -0.76,31.25 2.31,4.37 7.87,18.66 11.05,21.44 3.17,2.78 14.92,7.24 17.79,5.26 2.87,-1.99 6.45,7.14 11.21,6.35 4.77,-0.79 8.73,-4.76 8.73,-9.13 0,-4.37 6.36,-5.16 7.15,-8.34 0.8,-3.17 0.4,-5.95 1.59,-8.34 1.19,-2.38 4.7,-1.2 5.96,-7.14 1.14,-5.44 -0.4,-5.96 0,-8.74 0.39,-2.78 2.77,-2.52 1.98,-7.81 -0.79,-5.29 -4.42,-12.16 -7.59,-18.11 -3.18,-5.96 -9.74,-13.41 -18.44,-18.67 -4.3,-2.6 -6.65,-7.15 -10.76,-14.85"
         style="fill:#f9b291;fill-opacity:1;fill-rule:nonzero;stroke:none"
         id="path308" />
      <path
         d="m 1387.3,2368.5 c -0.84,1.29 -3.14,3.47 -5.84,1.57 -2.69,-1.9 -1.88,-5.17 -1.29,-6.49 0.58,-1.31 19.99,-45.23 19.99,-45.23 0,0 1.62,-1.86 4.71,0.86 3.35,2.96 2.28,4.44 2.28,4.44 0,0 -19.02,43.55 -19.85,44.85"
         style="fill:#2b2f75;fill-opacity:1;fill-rule:nonzero;stroke:none"
         id="path310" />
      <path
         d="m 1408.36,2326.55 c -3.81,-6.79 -8.22,-8.96 -12.19,-12.7 -3.11,-2.93 -2.72,-4.82 -6.15,-7.82 6.01,0.45 4.98,4 12.77,9.62 3.61,2.6 7.35,5.42 8.05,9.86 0.25,1.52 -1.56,2.34 -2.48,1.04"
         style="fill:#f29273;fill-opacity:1;fill-rule:nonzero;stroke:none"
         id="path312" />
      <path
         d="m 1175.96,2396.11 c 17.61,-0.92 68.87,8.08 97.36,-21.72 23.86,-24.96 37.53,-90.4 47.14,-116.94 -23.91,-24.37 -46.94,-44.02 -83.16,-36.11 -1.37,1.02 -19.34,57.58 -32.42,62.61"
         style="fill:#e93654;fill-opacity:1;fill-rule:nonzero;stroke:none"
         id="path314" />
      <path
         d="m 1306.81,1877.26 c 0,0 11.63,-279.54 9.51,-299.93 -2.12,-20.38 -24.8,-406.32 -24.8,-406.32 0,0 -46.57,-8.16 -74.46,0 0,0 -35.98,300.55 0,394.21 l -15.99,89.74 c 0,0 2.38,-66.75 0,-80.34 -2.39,-13.59 -74.36,-394.1 -74.36,-394.1 0,0 -47.61,1.26 -69.36,20.34 0,0 -6.78,264.36 42.82,375.57 l -45.39,290.89 26.15,74.02 225.88,-64.08"
         style="fill:#2b2f75;fill-opacity:1;fill-rule:nonzero;stroke:none"
         id="path316" />
      <path
         d="m 1201.07,1654.96 c -6.65,42.99 -47.68,195.48 -49.42,199.15 -22.43,17.38 -42.92,32.7 -50.38,47.19 12.25,-36.77 35.85,-38.67 44.68,-57.7 21.81,-46.98 5.15,-36.62 56.08,-194.03"
         style="fill:#1e204c;fill-opacity:1;fill-rule:nonzero;stroke:none"
         id="path318" />
      <path
         d="m 1000.78,2397.97 c -1.05,-14.88 1.99,-29.73 2.23,-44.64 0.24,-14.91 -2.96,-30.99 -13.912,-41.11 -10.95,-10.12 -31.266,-10.52 -39.047,2.2 7.875,-16.44 24.82,-27.5 42.758,-30.76 17.931,-3.27 36.641,0.61 53.211,8.2 44.03,20.18 73.36,66.33 72,114.88 -1.12,39.91 -31.42,78.48 -73.76,57.5 -24.81,-12.3 -41.54,-38.87 -43.48,-66.27"
         style="fill:#2b2f75;fill-opacity:1;fill-rule:nonzero;stroke:none"
         id="path320" />
      <path
         d="m 2601.04,281.891 c -4.32,-4.442 -8.03,-9.309 -11.08,-14.539 l -4.65,2.418 c -0.67,2.968 -3.5,5.019 -6.59,4.66 -3.31,-0.391 -5.68,-3.391 -5.29,-6.7 0.39,-3.308 3.39,-5.679 6.7,-5.289 l 1.83,0.52 4.51,-2.34 c -2.51,-5.539 -4.32,-11.391 -5.39,-17.441 l 7.47,-1.309 c 2.3,13.059 8.49,25.059 17.92,34.719 l -5.43,5.301"
         style="fill:#a5b7c7;fill-opacity:1;fill-rule:nonzero;stroke:none"
         id="path322" />
      <path
         d="m 2655.92,304.91 c -1.71,0 -3.41,-0.07 -5.1,-0.168 l -0.74,6.258 c 1.88,1.488 2.96,3.891 2.66,6.441 -0.46,3.93 -4.02,6.739 -7.95,6.278 -3.93,-0.457 -6.74,-4.02 -6.28,-7.949 0.3,-2.54 1.89,-4.61 4.04,-5.641 l 0.74,-6.238 c -7.14,-1.161 -14.03,-3.321 -20.6,-6.461 l 3.27,-6.84 c 9.34,4.469 19.42,6.742 29.96,6.742 4.96,0 9.93,-0.531 14.75,-1.582 l 1.6,7.41 c -5.35,1.16 -10.85,1.75 -16.35,1.75"
         style="fill:#a5b7c7;fill-opacity:1;fill-rule:nonzero;stroke:none"
         id="path324" />
      <path
         d="m 2721.94,279.43 c 3.31,0.41 5.66,3.422 5.26,6.73 -0.41,3.309 -3.42,5.66 -6.73,5.25 -3.09,-0.379 -5.35,-3.039 -5.29,-6.078 l -4.16,-3.641 c -4.18,4.301 -8.9,8.129 -14.08,11.399 l -4.04,-6.418 c 11.34,-7.141 20.2,-17.262 25.63,-29.25 l 6.91,3.129 c -2.51,5.539 -5.68,10.719 -9.42,15.449 l 4.02,3.512 1.9,-0.082"
         style="fill:#a5b7c7;fill-opacity:1;fill-rule:nonzero;stroke:none"
         id="path326" />
      <path
         d="m 2650.44,202.82 c -3.86,-0.23 -7.75,-0.351 -11.57,-0.351 -8.8,0 -17.33,0.613 -24.78,1.801 -3.91,0.621 -8.46,1.55 -12.71,2.921 10.47,-18.609 30.7,-31.25 53.89,-31.25 28.55,0 52.62,19.161 59.49,45.028 -6.81,-4.489 -15.05,-8.25 -24.58,-11.219 -11.79,-3.68 -25.55,-6.078 -39.74,-6.93"
         style="fill:#a5b7c7;fill-opacity:1;fill-rule:nonzero;stroke:none"
         id="path328" />
      <path
         d="m 2681.7,233.68 c -7.5,0 -13.6,6.101 -13.6,13.601 0,7.5 6.1,13.61 13.6,13.61 7.5,0 13.6,-6.11 13.6,-13.61 0,-7.5 -6.1,-13.601 -13.6,-13.601 z m -47.38,-9.078 c -10.19,0 -18.49,8.289 -18.49,18.488 0,10.199 8.3,18.5 18.49,18.5 10.2,0 18.5,-8.301 18.5,-18.5 0,-10.199 -8.3,-18.488 -18.5,-18.488 z m 21.6,65.14 c -33.52,0 -60.8,-26.66 -60.8,-59.433 0,-4.258 0.46,-8.489 1.37,-12.61 6.74,-4.828 27.06,-8.898 53.48,-7.308 28.79,1.73 52.97,9.57 66.72,21.578 -0.05,1.953 -0.21,3.902 -0.45,5.82 -3.8,29.621 -29.74,51.953 -60.32,51.953"
         style="fill:#a5b7c7;fill-opacity:1;fill-rule:nonzero;stroke:none"
         id="path330" />
      <path
         d="m 2815.95,271.07 c -2.94,1.16 -8.05,3.09 -13.82,2.379 -5.51,-0.687 -8.44,-3.41 -8.44,-10.07 v -8.66 h 22.28 v -17.168 h -22.28 V 183 h -19.32 v 54.551 h -13.39 v 17.168 h 13.39 v 8.883 c 0,16.796 8.96,27.828 25.69,27.828 6.42,0 11.57,-1.219 15.89,-3.078 V 271.07"
         style="fill:#a5b7c7;fill-opacity:1;fill-rule:nonzero;stroke:none"
         id="path332" />
      <path
         d="m 2862.98,237.75 c -1.77,0.301 -3.58,0.469 -5.26,0.469 -8.96,0 -15.1,-5.481 -15.1,-16.137 V 183 h -19.32 v 71.719 h 18.73 v -7.848 c 4.51,6.738 11.39,9.77 20.2,9.77 4.15,0 8.48,-1.27 10.95,-3.36 l -10.2,-15.531"
         style="fill:#a5b7c7;fill-opacity:1;fill-rule:nonzero;stroke:none"
         id="path334" />
      <path
         d="m 2888.51,225.629 h 31.75 c -1.78,9.18 -7.33,14.359 -15.62,14.359 -9.1,0 -14.43,-5.476 -16.13,-14.359 z m 51.14,-6.66 c 0,-2.219 -0.15,-4.879 -0.37,-6.508 h -50.85 c 2.08,-10.359 9.33,-14.879 18.43,-14.879 6.22,0 12.96,2.52 18.14,6.879 l 11.32,-12.43 c -8.14,-7.48 -18.5,-10.883 -30.57,-10.883 -21.98,0 -37.23,14.954 -37.23,37.524 0,22.578 14.81,37.969 36.27,37.969 20.65,0 34.79,-15.321 34.86,-37.672"
         style="fill:#a5b7c7;fill-opacity:1;fill-rule:nonzero;stroke:none"
         id="path336" />
      <path
         d="m 2965.04,225.629 h 31.75 c -1.78,9.18 -7.33,14.359 -15.62,14.359 -9.1,0 -14.43,-5.476 -16.13,-14.359 z m 51.14,-6.66 c 0,-2.219 -0.15,-4.879 -0.37,-6.508 h -50.84 c 2.07,-10.359 9.32,-14.879 18.43,-14.879 6.21,0 12.95,2.52 18.13,6.879 l 11.32,-12.43 c -8.14,-7.48 -18.5,-10.883 -30.56,-10.883 -21.99,0 -37.23,14.954 -37.23,37.524 0,22.578 14.8,37.969 36.26,37.969 20.65,0 34.79,-15.321 34.86,-37.672"
         style="fill:#a5b7c7;fill-opacity:1;fill-rule:nonzero;stroke:none"
         id="path338" />
      <path
         d="m 3042.87,218.902 c 0,-11.332 7.48,-19.761 18.43,-19.761 11.4,0 18.5,8.8 18.5,19.761 0,10.95 -7.1,19.758 -18.5,19.758 -10.95,0 -18.43,-8.441 -18.43,-19.758 z m 56.77,0 c 0,-21.543 -14.95,-37.754 -34.71,-37.754 -9.62,0 -16.43,3.774 -21.1,9.332 v -37.089 h -19.24 v 101.328 h 18.87 v -7.918 c 4.67,5.851 11.55,9.84 21.39,9.84 19.84,0 34.79,-16.2 34.79,-37.739"
         style="fill:#a5b7c7;fill-opacity:1;fill-rule:nonzero;stroke:none"
         id="path340" />
      <path
         d="m 3128.09,183 h -19.32 v 71.719 h 19.32 z m 2.59,95.18 c 0,-6.961 -5.41,-12.282 -12.37,-12.282 -6.95,0 -12.28,5.321 -12.28,12.282 0,6.961 5.33,12.441 12.28,12.441 6.96,0 12.37,-5.48 12.37,-12.441"
         style="fill:#a5b7c7;fill-opacity:1;fill-rule:nonzero;stroke:none"
         id="path342" />
      <path
         d="m 3160.32,229.18 27.02,25.539 h 23.68 l -34.79,-33.75 35.01,-37.969 h -23.76 l -27.16,29.012 V 183 H 3141 v 106.582 h 19.32 V 229.18"
         style="fill:#a5b7c7;fill-opacity:1;fill-rule:nonzero;stroke:none"
         id="path344" />
      <path
         d="m 1844.12,202.84 v 32.082 c -3.95,6.148 -12.44,11.418 -21.24,11.418 -14.2,0 -22.7,-11.719 -22.7,-27.391 0,-15.668 8.5,-27.238 22.7,-27.238 8.8,0 17.29,4.969 21.24,11.129 z m 0,-19.192 v 10.551 c -5.27,-7.179 -13.91,-12.308 -23.87,-12.308 -18.46,0 -31.49,14.058 -31.49,37.058 0,22.563 12.89,37.211 31.49,37.211 9.52,0 18.16,-4.691 23.87,-12.449 v 37.641 h 10.99 v -97.704 h -10.99"
         style="fill:#a5b7c7;fill-opacity:1;fill-rule:nonzero;stroke:none"
         id="path346" />
      <path
         d="m 1904.04,247.07 c -15.09,0 -22.56,-12.738 -23.15,-23.578 h 46.43 c -0.14,10.547 -7.17,23.578 -23.28,23.578 z m -34.72,-27.968 c 0,20.5 14.65,37.058 34.86,37.058 21.39,0 33.98,-16.699 33.98,-37.941 v -2.789 h -57.27 c 0.88,-13.321 10.26,-24.461 25.49,-24.461 8.05,0 16.26,3.23 21.82,8.941 l 5.28,-7.18 c -7.04,-7.031 -16.55,-10.839 -28.13,-10.839 -20.94,0 -36.03,15.089 -36.03,37.211"
         style="fill:#a5b7c7;fill-opacity:1;fill-rule:nonzero;stroke:none"
         id="path348" />
      <path
         d="m 1946.07,193.031 5.71,7.899 c 4.69,-5.418 13.63,-10.098 23.29,-10.098 10.84,0 16.7,5.117 16.7,12.16 0,17.129 -43.79,6.59 -43.79,32.809 0,10.98 9.51,20.359 26.36,20.359 12.01,0 20.51,-4.539 26.22,-10.262 l -5.13,-7.617 c -4.24,5.129 -12.01,8.938 -21.09,8.938 -9.67,0 -15.67,-4.828 -15.67,-11.129 0,-15.531 43.79,-5.27 43.79,-32.809 0,-11.871 -9.52,-21.39 -27.83,-21.39 -11.57,0 -21.38,3.519 -28.56,11.14"
         style="fill:#a5b7c7;fill-opacity:1;fill-rule:nonzero;stroke:none"
         id="path350" />
      <path
         d="m 2016.67,183.648 v 70.75 h 10.99 v -70.75 z m -1.9,88.184 c 0,4.098 3.37,7.469 7.32,7.469 4.1,0 7.47,-3.371 7.47,-7.469 0,-4.102 -3.37,-7.32 -7.47,-7.32 -3.95,0 -7.32,3.218 -7.32,7.32"
         style="fill:#a5b7c7;fill-opacity:1;fill-rule:nonzero;stroke:none"
         id="path352" />
      <path
         d="m 2097.09,204.012 v 30.91 c -3.81,6.148 -12.31,11.418 -21.1,11.418 -14.21,0 -22.7,-11.281 -22.7,-26.949 0,-15.532 8.49,-26.95 22.7,-26.95 8.79,0 17.29,5.418 21.1,11.571 z m -51.27,-38.52 5.57,8.199 c 5.85,-7.031 12.89,-9.671 22.99,-9.671 11.72,0 22.71,5.71 22.71,21.242 v 10.109 c -5.13,-7.18 -13.77,-12.601 -23.74,-12.601 -18.45,0 -31.49,13.769 -31.49,36.621 0,22.711 12.89,36.769 31.49,36.769 9.53,0 18.02,-4.691 23.74,-12.449 v 10.687 h 10.98 v -68.699 c 0,-23.437 -16.4,-30.758 -33.69,-30.758 -12.01,0 -20.21,2.34 -28.56,10.551"
         style="fill:#a5b7c7;fill-opacity:1;fill-rule:nonzero;stroke:none"
         id="path354" />
      <path
         d="m 2174.13,183.648 v 46.293 c 0,12.45 -6.29,16.399 -15.82,16.399 -8.64,0 -16.84,-5.27 -20.94,-10.988 v -51.704 h -10.99 v 70.75 h 10.99 v -10.257 c 4.98,5.859 14.64,12.019 25.19,12.019 14.8,0 22.56,-7.469 22.56,-22.851 v -49.661 h -10.99"
         style="fill:#a5b7c7;fill-opacity:1;fill-rule:nonzero;stroke:none"
         id="path356" />
      <path
         d="m 2234.04,247.07 c -15.09,0 -22.56,-12.738 -23.14,-23.578 h 46.43 c -0.15,10.547 -7.18,23.578 -23.29,23.578 z m -34.72,-27.968 c 0,20.5 14.65,37.058 34.87,37.058 21.38,0 33.98,-16.699 33.98,-37.941 v -2.789 h -57.27 c 0.88,-13.321 10.25,-24.461 25.49,-24.461 8.05,0 16.25,3.23 21.82,8.941 l 5.27,-7.18 c -7.03,-7.031 -16.55,-10.839 -28.12,-10.839 -20.95,0 -36.04,15.089 -36.04,37.211"
         style="fill:#a5b7c7;fill-opacity:1;fill-rule:nonzero;stroke:none"
         id="path358" />
      <path
         d="m 2333.5,202.84 v 32.082 c -3.96,6.148 -12.45,11.418 -21.24,11.418 -14.21,0 -22.7,-11.719 -22.7,-27.391 0,-15.668 8.49,-27.238 22.7,-27.238 8.79,0 17.28,4.969 21.24,11.129 z m 0,-19.192 v 10.551 c -5.27,-7.179 -13.92,-12.308 -23.88,-12.308 -18.45,0 -31.49,14.058 -31.49,37.058 0,22.563 12.89,37.211 31.49,37.211 9.52,0 18.17,-4.691 23.88,-12.449 v 37.641 h 10.99 v -97.704 h -10.99"
         style="fill:#a5b7c7;fill-opacity:1;fill-rule:nonzero;stroke:none"
         id="path360" />
      <path
         d="m 2429,191.711 c 14.36,0 22.85,11.57 22.85,27.238 0,15.672 -8.49,27.391 -22.85,27.391 -8.64,0 -17.28,-5.27 -21.1,-11.418 V 202.84 c 3.82,-6.16 12.46,-11.129 21.1,-11.129 z m -32.08,-8.063 v 97.704 h 10.98 v -37.641 c 5.72,7.758 14.21,12.449 23.88,12.449 18.46,0 31.5,-14.648 31.5,-37.211 0,-23 -13.04,-37.058 -31.5,-37.058 -9.96,0 -18.6,5.129 -23.88,12.308 v -10.551 h -10.98"
         style="fill:#a5b7c7;fill-opacity:1;fill-rule:nonzero;stroke:none"
         id="path362" />
      <path
         d="m 2475.29,165.93 c 1.61,-0.739 4.24,-1.18 6,-1.18 4.83,0 8.06,1.609 10.55,7.469 l 4.69,10.703 -29.59,71.476 h 11.86 l 23.58,-58.007 23.44,58.007 h 12.01 l -35.45,-85.109 c -4.24,-10.25 -11.42,-14.207 -20.8,-14.348 -2.34,0 -6,0.438 -8.05,1.028 l 1.76,9.961"
         style="fill:#a5b7c7;fill-opacity:1;fill-rule:nonzero;stroke:none"
         id="path364" />
    </g>
  </g>
</svg>
