<?xml version="1.0" encoding="UTF-8" standalone="no"?>
<!-- Created with Inkscape (http://www.inkscape.org/) -->

<svg
   version="1.1"
   id="svg2"
   width="1289.0267"
   height="1376.5601"
   viewBox="0 0 1289.0267 1376.5601"
   sodipodi:docname="reshot-illustration-internet-search-QAXSPJDUZE.eps"
   xmlns:inkscape="http://www.inkscape.org/namespaces/inkscape"
   xmlns:sodipodi="http://sodipodi.sourceforge.net/DTD/sodipodi-0.dtd"
   xmlns="http://www.w3.org/2000/svg"
   xmlns:svg="http://www.w3.org/2000/svg">
  <defs
     id="defs6" />
  <sodipodi:namedview
     id="namedview4"
     pagecolor="#ffffff"
     bordercolor="#000000"
     borderopacity="0.25"
     inkscape:showpageshadow="2"
     inkscape:pageopacity="0.0"
     inkscape:pagecheckerboard="0"
     inkscape:deskcolor="#d1d1d1" />
  <g
     id="g8"
     inkscape:groupmode="layer"
     inkscape:label="ink_ext_XXXXXX"
     transform="matrix(1.3333333,0,0,-1.3333333,0,1376.56)">
    <g
       id="g10"
       transform="scale(0.1)">
      <path
         d="M 5052.67,340.902 5583.06,647.109 6113.43,340.902 5582.75,34.5 5052.67,340.902"
         style="fill:#f6f5fc;fill-opacity:1;fill-rule:nonzero;stroke:none"
         id="path12" />
      <path
         d="M 5536.23,875.051 5835.9,1048.06 6135.56,875.051 5835.73,701.93 5536.23,875.051"
         style="fill:#daf9fa;fill-opacity:1;fill-rule:nonzero;stroke:none"
         id="path14" />
      <path
         d="M 0.00390625,2260.26 530.387,2566.49 1060.76,2260.26 530.074,1953.88 0.00390625,2260.26"
         style="fill:#fff5f9;fill-opacity:1;fill-rule:nonzero;stroke:none"
         id="path16" />
      <path
         d="m 720.621,2887.63 299.669,173.01 299.66,-173.01 -299.84,-173.12 -299.489,173.12"
         style="fill:#daf9fa;fill-opacity:1;fill-rule:nonzero;stroke:none"
         id="path18" />
      <path
         d="m 5105.97,5112.77 530.39,306.21 530.36,-306.21 -530.68,-306.39 -530.07,306.39"
         style="fill:#fff5f9;fill-opacity:1;fill-rule:nonzero;stroke:none"
         id="path20" />
      <path
         d="m 5589.53,5646.92 299.66,173.01 299.66,-173.01 -299.83,-173.11 -299.49,173.11"
         style="fill:#f6f5fc;fill-opacity:1;fill-rule:nonzero;stroke:none"
         id="path22" />
      <path
         d="m 7310.49,4179.74 530.39,306.21 530.37,-306.21 -530.68,-306.39 -530.08,306.39"
         style="fill:#daf9fa;fill-opacity:1;fill-rule:nonzero;stroke:none"
         id="path24" />
      <path
         d="m 8829.42,3251.33 299.67,173.02 299.65,-173.02 -299.83,-173.11 -299.49,173.11"
         style="fill:#f6f5fc;fill-opacity:1;fill-rule:nonzero;stroke:none"
         id="path26" />
      <path
         d="m 7391.48,1798.43 530.39,306.22 530.36,-306.22 -530.68,-306.39 -530.07,306.39"
         style="fill:#fff5f9;fill-opacity:1;fill-rule:nonzero;stroke:none"
         id="path28" />
      <path
         d="m 5636.12,2985.69 c -6.35,-4.08 -12.32,-7.94 -18.38,-12.17 4.23,3.15 9.1,6.35 13.97,9.57 l 4.41,2.6"
         style="fill:#201d1e;fill-opacity:1;fill-rule:nonzero;stroke:none"
         id="path30" />
      <path
         d="m 5658.71,2999.73 c -7.44,-4.74 -15.15,-9.3 -22.59,-14.04 4.5,2.99 9,5.99 13.78,8.81 1.83,1.1 3.77,2.56 5.59,3.65 1.11,0.65 1.85,1.08 3.22,1.58"
         style="fill:#201d1e;fill-opacity:1;fill-rule:nonzero;stroke:none"
         id="path32" />
      <path
         d="m 4923.11,4291.53 c -221.87,21.6 -437.26,23.22 -638.89,5.4 317.96,104.46 656.7,175.45 999.5,208.11 z m -899.36,-532.54 -407.83,246.98 c 280.44,132.25 665.33,188.13 1096.12,160.59 z m -872.9,-516.61 c -40.75,258.3 57.77,488.55 282.06,654.81 l 407.04,-247.24 z m -570.87,-338.2 c 58.31,204.33 180.31,406.22 357.91,595.16 -31.85,-120.38 -31.3,-248.86 2.16,-382.2 z m 3084.31,1621.64 h 0.55 c 274.23,3.24 539.29,-19.16 787.87,-66.67 l 121.74,131.46 c -267.22,50.74 -552.79,75.03 -849.69,71.25 l 0.54,0.27 C 4913.12,4652.69 4082.33,4435.4 3434.81,4066.16 l -4.33,-2.7 c -5.12,-2.7 -9.98,-5.4 -14.84,-8.1 -10.79,-6.21 -21.87,-12.42 -32.38,-18.62 -3.78,-2.16 -7.84,-4.59 -11.62,-7.02 l -4.86,-2.97 c -2.16,-1.35 -4.31,-2.7 -6.2,-4.04 -7.56,-4.87 -15.12,-9.18 -22.68,-14.05 -3.24,-1.88 -6.21,-4.04 -9.18,-5.93 -2.96,-1.89 -5.93,-4.05 -9.16,-6.21 2.15,1.62 4.31,3.24 6.74,4.86 -619.72,-382.47 -988.96,-875.6 -1013.53,-1359.83 -9.17,-177.33 28.07,-348.45 110.4,-509.06 l 220.52,71.26 c -76.65,148.99 -110.94,308.24 -102.57,472.62 l 0.27,0.27 c 0.54,14.58 1.62,29.15 3.24,44 l 440.76,261 c 52.1,-129.56 133.88,-258.3 242.39,-383.82 l 209.45,86.92 c -111.47,129.56 -192.99,262.35 -242.11,394.62 -2.69,7.28 -5.13,14.57 -7.56,22.13 l 788.15,466.67 348.19,-210.8 183.81,108.78 -348.18,210.8 787.6,466.41 c 12.42,-1.35 24.56,-2.97 36.99,-4.85 220.24,-30.77 441.03,-80.98 656.15,-149.27 l 147.64,124.43 c -208.36,66.4 -422.41,116.88 -638.35,149.53 l 441.05,261.01 c 24.83,0.81 49.39,1.35 73.68,1.62"
         style="fill:#f6f5fc;fill-opacity:1;fill-rule:nonzero;stroke:none"
         id="path34" />
      <path
         d="m 3597.35,2060.8 101.87,-41.48 -51.88,60.99 -276.38,375.12 97.62,57.8 619.31,-172.07 102.04,-32.9 -68.14,63.62 -304.91,347.59 116.31,68.87 432.1,-516.22 -105.47,-62.46 -650.66,177.34 -63,21.57 35.28,-37.97 282.44,-395.37 -105.44,-62.44 -856.93,264.67 115.69,68.51 580.15,-185.17"
         style="fill:#f6f5fc;fill-opacity:1;fill-rule:nonzero;stroke:none"
         id="path36" />
      <path
         d="m 4939.14,2855.3 101.87,-41.48 -51.87,61 -276.39,375.11 97.62,57.81 619.31,-172.08 102.04,-32.9 -68.13,63.62 -304.91,347.6 116.3,68.86 432.1,-516.22 -105.47,-62.46 -650.66,177.34 -63,21.57 35.29,-37.98 282.44,-395.36 -105.44,-62.43 -856.94,264.66 115.69,68.51 580.15,-185.17"
         style="fill:#f6f5fc;fill-opacity:1;fill-rule:nonzero;stroke:none"
         id="path38" />
      <path
         d="m 6280.93,3649.81 101.88,-41.49 -51.89,61 -276.37,375.11 97.61,57.81 619.31,-172.07 102.04,-32.9 -68.13,63.61 -304.92,347.6 116.31,68.86 432.1,-516.23 -105.47,-62.45 -650.65,177.35 -63.01,21.56 35.28,-37.98 282.45,-395.36 -105.43,-62.43 -856.95,264.67 115.7,68.5 580.14,-185.16"
         style="fill:#f6f5fc;fill-opacity:1;fill-rule:nonzero;stroke:none"
         id="path40" />
      <path
         d="m 7301.32,2358.68 c 31.86,120.66 31.31,248.86 -2.16,382.2 l 360.07,212.96 c -58.31,-204.32 -180.31,-406.22 -357.91,-595.16 z m -495.02,-397.85 -407.03,247.51 689.09,407.3 c 40.76,-258.31 -57.49,-488.54 -282.06,-654.81 z m -1279.12,-269.1 688.28,407.29 407.84,-246.7 C 6342.86,1719.8 5957.96,1663.93 5527.18,1691.73 Z m -571.68,-338.75 360.61,213.51 c 221.86,-21.6 437.25,-23.22 638.88,-5.41 -317.95,-104.45 -656.69,-175.43 -999.49,-208.1 z m 2747.18,2372.55 -220.52,-71.26 c 76.66,-149 110.94,-308.24 102.57,-472.62 h -0.26 c -0.54,-14.84 -1.62,-29.42 -3.25,-44.27 l -440.77,-261 c -52.09,129.56 -133.87,258.31 -242.38,383.82 l -209.45,-86.92 c 111.47,-129.56 192.99,-262.35 242.11,-394.61 2.7,-7.29 5.13,-14.58 7.56,-22.14 l -788.15,-466.68 -348.19,210.81 -183.81,-108.77 348.19,-210.54 -787.61,-466.68 c -12.42,1.62 -24.57,3.24 -36.98,4.85 -220.25,30.77 -441.04,80.98 -656.16,149.27 l -147.65,-124.43 c 208.38,-66.4 422.43,-116.61 638.35,-149.26 l -441.03,-261.28 c -24.84,-0.81 -49.4,-1.35 -73.69,-1.35 l -0.54,-0.27 c -274.24,-3.24 -539.29,19.17 -787.88,66.67 l -121.73,-131.18 c 267.22,-51.01 552.78,-75.31 849.69,-71.53 l -0.54,-0.27 c 812.17,9.45 1642.96,226.73 2290.49,595.98 l 4.32,2.69 c 5.12,2.7 9.99,5.4 14.84,8.1 10.8,6.21 21.86,12.42 32.39,18.62 3.78,2.16 7.82,4.59 11.6,7.29 l 4.87,2.7 c 2.15,1.35 4.31,2.7 6.21,4.05 7.56,4.86 15.11,9.45 22.66,14.04 1.36,1.07 2.97,1.88 4.33,2.69 624.03,383.28 996.25,878.3 1020.81,1364.42 9.17,177.33 -28.07,348.46 -110.4,509.06"
         style="fill:#f6f5fc;fill-opacity:1;fill-rule:nonzero;stroke:none"
         id="path42" />
      <path
         d="m 5062.77,99 -6.75,3.902 -2365.86,1365.908 13.5,23.36 L 5062.77,130.102 7869.66,1750.37 6806.88,2363.99 8932.19,3590.9 6466.17,5014.43 l 0.34,621.43 26.99,-0.03 -0.34,-605.79 L 8986.18,3590.9 6860.86,2363.99 7923.65,1750.37 5062.77,99"
         style="fill:#bab5f7;fill-opacity:1;fill-rule:nonzero;stroke:none"
         id="path44" />
      <path
         d="m 8620.97,3291.12 v -0.47 c 0,-27.43 -13.71,-54.86 -40.9,-70.7 l -188.2,-108.51 -309.97,-179.23 -213.03,-122.94 c -60.06,-34.76 -134.3,-34.76 -194.35,0 l -212.08,122.47 -310.92,179.45 -187.97,108.53 c -27.42,15.6 -40.9,43.27 -40.9,70.93 v 0.47 c 0.24,27.19 13.71,54.39 40.9,70.23 l 714.04,412.34 c 58.4,33.81 130.28,33.81 188.44,0 l 714.04,-412.11 c 26.96,-15.6 40.67,-43.03 40.9,-70.46"
         style="fill:#5e19f4;fill-opacity:1;fill-rule:nonzero;stroke:none"
         id="path46" />
      <path
         d="m 8620.97,3290.65 v -357.96 c 0.48,-27.67 -13.23,-55.8 -40.9,-71.64 l -711.2,-410.46 c -60.06,-34.76 -134.3,-34.76 -194.35,0 l -710.97,410.46 c -27.19,15.84 -40.66,43.02 -40.9,70.22 v 359.38 c 0,-27.66 13.48,-55.33 40.9,-70.93 l 187.97,-108.53 310.92,-179.45 212.08,-122.47 c 60.05,-34.76 134.29,-34.76 194.35,0 l 213.03,122.94 309.97,179.23 188.2,108.51 c 27.19,15.84 40.9,43.27 40.9,70.7"
         style="fill:#f9486e;fill-opacity:1;fill-rule:nonzero;stroke:none"
         id="path48" />
      <path
         d="m 7133.98,3413.75 v -128.06 c 0,-25.83 -30.83,-46.82 -68.95,-46.82 -38.11,0 -69.02,20.99 -69.02,46.82 v 128.06 c 0,-25.83 30.91,-46.84 69.02,-46.84 38.12,0 68.95,21.01 68.95,46.84"
         style="fill:#bebdf9;fill-opacity:1;fill-rule:nonzero;stroke:none"
         id="path50" />
      <path
         d="m 7133.98,3413.75 c 0,-25.83 -30.83,-46.84 -68.95,-46.84 -38.11,0 -69.02,21.01 -69.02,46.84 0,25.84 30.91,46.84 69.02,46.84 38.12,0 68.95,-21 68.95,-46.84"
         style="fill:#e2e0fc;fill-opacity:1;fill-rule:nonzero;stroke:none"
         id="path52" />
      <path
         d="m 7840.87,3032.48 v -128.06 c 0,-25.83 -30.83,-46.83 -68.94,-46.83 -38.11,0 -69.03,21 -69.03,46.83 v 128.06 c 0,-25.84 30.92,-46.83 69.03,-46.83 38.11,0 68.94,20.99 68.94,46.83"
         style="fill:#bebdf9;fill-opacity:1;fill-rule:nonzero;stroke:none"
         id="path54" />
      <path
         d="m 7840.87,3032.48 c 0,-25.84 -30.83,-46.83 -68.94,-46.83 -38.11,0 -69.03,20.99 -69.03,46.83 0,25.83 30.92,46.83 69.03,46.83 38.11,0 68.94,-21 68.94,-46.83"
         style="fill:#e2e0fc;fill-opacity:1;fill-rule:nonzero;stroke:none"
         id="path56" />
      <path
         d="M 7840.87,3807.45 V 3679.4 c 0,-25.83 -30.83,-46.84 -68.94,-46.84 -38.11,0 -69.03,21.01 -69.03,46.84 v 128.05 c 0,-25.83 30.92,-46.83 69.03,-46.83 38.11,0 68.94,21 68.94,46.83"
         style="fill:#bebdf9;fill-opacity:1;fill-rule:nonzero;stroke:none"
         id="path58" />
      <path
         d="m 7840.87,3807.45 c 0,-25.83 -30.83,-46.83 -68.94,-46.83 -38.11,0 -69.03,21 -69.03,46.83 0,25.83 30.92,46.84 69.03,46.84 38.11,0 68.94,-21.01 68.94,-46.84"
         style="fill:#e2e0fc;fill-opacity:1;fill-rule:nonzero;stroke:none"
         id="path60" />
      <path
         d="m 8547.77,3426.17 v -128.05 c 0,-25.83 -30.83,-46.84 -68.94,-46.84 -38.11,0 -69.03,21.01 -69.03,46.84 v 128.05 c 0,-25.83 30.92,-46.83 69.03,-46.83 38.11,0 68.94,21 68.94,46.83"
         style="fill:#bebdf9;fill-opacity:1;fill-rule:nonzero;stroke:none"
         id="path62" />
      <path
         d="m 8547.77,3426.17 c 0,-25.83 -30.83,-46.83 -68.94,-46.83 -38.11,0 -69.03,21 -69.03,46.83 0,25.83 30.92,46.84 69.03,46.84 38.11,0 68.94,-21.01 68.94,-46.84"
         style="fill:#e2e0fc;fill-opacity:1;fill-rule:nonzero;stroke:none"
         id="path64" />
      <path
         d="m 7175.07,2908.83 c 0,-28.3 -10.61,-51.24 -23.71,-51.24 -13.09,0 -23.72,22.94 -23.72,51.24 0,28.3 10.63,51.24 23.72,51.24 13.1,0 23.71,-22.94 23.71,-51.24"
         style="fill:#fce0e9;fill-opacity:1;fill-rule:nonzero;stroke:none"
         id="path66" />
      <path
         d="m 7330.21,2829.24 c 0,-28.3 -10.62,-51.24 -23.71,-51.24 -13.1,0 -23.71,22.94 -23.71,51.24 0,28.3 10.61,51.24 23.71,51.24 13.09,0 23.71,-22.94 23.71,-51.24"
         style="fill:#fce0e9;fill-opacity:1;fill-rule:nonzero;stroke:none"
         id="path68" />
      <path
         d="m 7485.35,2735.47 c 0,-28.29 -10.62,-51.24 -23.71,-51.24 -13.1,0 -23.72,22.95 -23.72,51.24 0,28.3 10.62,51.25 23.72,51.25 13.09,0 23.71,-22.95 23.71,-51.25"
         style="fill:#fce0e9;fill-opacity:1;fill-rule:nonzero;stroke:none"
         id="path70" />
      <path
         d="m 8368.67,2915.92 c 0,-28.3 10.61,-51.24 23.71,-51.24 13.09,0 23.71,22.94 23.71,51.24 0,28.3 -10.62,51.24 -23.71,51.24 -13.1,0 -23.71,-22.94 -23.71,-51.24"
         style="fill:#fce0e9;fill-opacity:1;fill-rule:nonzero;stroke:none"
         id="path72" />
      <path
         d="m 8213.53,2836.33 c 0,-28.3 10.61,-51.24 23.71,-51.24 13.1,0 23.71,22.94 23.71,51.24 0,28.3 -10.61,51.24 -23.71,51.24 -13.1,0 -23.71,-22.94 -23.71,-51.24"
         style="fill:#fce0e9;fill-opacity:1;fill-rule:nonzero;stroke:none"
         id="path74" />
      <path
         d="m 8058.38,2742.56 c 0,-28.3 10.63,-51.24 23.72,-51.24 13.1,0 23.71,22.94 23.71,51.24 0,28.3 -10.61,51.25 -23.71,51.25 -13.09,0 -23.72,-22.95 -23.72,-51.25"
         style="fill:#fce0e9;fill-opacity:1;fill-rule:nonzero;stroke:none"
         id="path76" />
      <path
         d="m 7584.6,1360.73 v -0.42 c 0,-24.31 -12.15,-48.63 -36.26,-62.67 L 7381.47,1201.41 7106.64,1042.5 6917.75,933.492 c -53.24,-30.812 -119.07,-30.812 -172.33,0 l -188.04,108.588 -275.67,159.12 -166.67,96.22 c -24.31,13.84 -36.26,38.37 -36.26,62.89 v 0.42 c 0.21,24.11 12.16,48.23 36.26,62.27 l 633.12,365.6 c 51.78,29.98 115.51,29.98 167.08,0 l 633.1,-365.4 c 23.9,-13.83 36.06,-38.15 36.26,-62.47"
         style="fill:#5e19f4;fill-opacity:1;fill-rule:nonzero;stroke:none"
         id="path78" />
      <path
         d="m 7584.6,1360.31 v -317.39 c 0.42,-24.52 -11.73,-49.471 -36.26,-63.51 L 6917.75,615.473 c -53.24,-30.821 -119.07,-30.821 -172.33,0 L 6115.04,979.41 c -24.1,14.039 -36.05,38.15 -36.26,62.26 v 318.64 c 0,-24.52 11.95,-49.05 36.26,-62.89 l 166.67,-96.22 275.67,-159.12 188.04,-108.588 c 53.26,-30.812 119.09,-30.812 172.33,0 l 188.89,109.008 274.83,158.91 166.87,96.23 c 24.11,14.04 36.26,38.36 36.26,62.67"
         style="fill:#f9486e;fill-opacity:1;fill-rule:nonzero;stroke:none"
         id="path80" />
      <path
         d="m 6266.16,1469.46 v -113.53 c 0,-22.91 -27.34,-41.53 -61.14,-41.53 -33.79,0 -61.19,18.62 -61.19,41.53 v 113.53 c 0,-22.9 27.4,-41.52 61.19,-41.52 33.8,0 61.14,18.62 61.14,41.52"
         style="fill:#bebdf9;fill-opacity:1;fill-rule:nonzero;stroke:none"
         id="path82" />
      <path
         d="m 6266.16,1469.46 c 0,-22.9 -27.34,-41.52 -61.14,-41.52 -33.79,0 -61.19,18.62 -61.19,41.52 0,22.91 27.4,41.54 61.19,41.54 33.8,0 61.14,-18.63 61.14,-41.54"
         style="fill:#e2e0fc;fill-opacity:1;fill-rule:nonzero;stroke:none"
         id="path84" />
      <path
         d="m 6892.92,1131.41 v -113.55 c 0,-22.899 -27.33,-41.52 -61.12,-41.52 -33.79,0 -61.2,18.621 -61.2,41.52 v 113.55 c 0,-22.91 27.41,-41.54 61.2,-41.54 33.79,0 61.12,18.63 61.12,41.54"
         style="fill:#bebdf9;fill-opacity:1;fill-rule:nonzero;stroke:none"
         id="path86" />
      <path
         d="m 6892.92,1131.41 c 0,-22.91 -27.33,-41.54 -61.12,-41.54 -33.79,0 -61.2,18.63 -61.2,41.54 0,22.9 27.41,41.52 61.2,41.52 33.79,0 61.12,-18.62 61.12,-41.52"
         style="fill:#e2e0fc;fill-opacity:1;fill-rule:nonzero;stroke:none"
         id="path88" />
      <path
         d="M 6892.92,1818.54 V 1705 c 0,-22.91 -27.33,-41.53 -61.12,-41.53 -33.79,0 -61.2,18.62 -61.2,41.53 v 113.54 c 0,-22.9 27.41,-41.53 61.2,-41.53 33.79,0 61.12,18.63 61.12,41.53"
         style="fill:#bebdf9;fill-opacity:1;fill-rule:nonzero;stroke:none"
         id="path90" />
      <path
         d="m 6892.92,1818.54 c 0,-22.9 -27.33,-41.53 -61.12,-41.53 -33.79,0 -61.2,18.63 -61.2,41.53 0,22.91 27.41,41.53 61.2,41.53 33.79,0 61.12,-18.62 61.12,-41.53"
         style="fill:#e2e0fc;fill-opacity:1;fill-rule:nonzero;stroke:none"
         id="path92" />
      <path
         d="m 7519.7,1480.48 v -113.55 c 0,-22.9 -27.33,-41.52 -61.13,-41.52 -33.79,0 -61.2,18.62 -61.2,41.52 v 113.55 c 0,-22.91 27.41,-41.53 61.2,-41.53 33.8,0 61.13,18.62 61.13,41.53"
         style="fill:#bebdf9;fill-opacity:1;fill-rule:nonzero;stroke:none"
         id="path94" />
      <path
         d="m 7519.7,1480.48 c 0,-22.91 -27.33,-41.53 -61.13,-41.53 -33.79,0 -61.2,18.62 -61.2,41.53 0,22.9 27.41,41.52 61.2,41.52 33.8,0 61.13,-18.62 61.13,-41.52"
         style="fill:#e2e0fc;fill-opacity:1;fill-rule:nonzero;stroke:none"
         id="path96" />
      <path
         d="m 6302.59,1021.77 c 0,-25.09 -9.41,-45.43 -21.02,-45.43 -11.61,0 -21.03,20.34 -21.03,45.43 0,25.1 9.42,45.44 21.03,45.44 11.61,0 21.02,-20.34 21.02,-45.44"
         style="fill:#fce0e9;fill-opacity:1;fill-rule:nonzero;stroke:none"
         id="path98" />
      <path
         d="m 6440.14,951.199 c 0,-25.09 -9.4,-45.429 -21.01,-45.429 -11.62,0 -21.03,20.339 -21.03,45.429 0,25.102 9.41,45.442 21.03,45.442 11.61,0 21.01,-20.34 21.01,-45.442"
         style="fill:#fce0e9;fill-opacity:1;fill-rule:nonzero;stroke:none"
         id="path100" />
      <path
         d="m 7405.23,466.852 c 0,-25.09 -9.42,-45.43 -21.03,-45.43 -11.61,0 -21.02,20.34 -21.02,45.43 0,25.089 9.41,45.437 21.02,45.437 11.61,0 21.03,-20.348 21.03,-45.437"
         style="fill:#f6f5fc;fill-opacity:1;fill-rule:nonzero;stroke:none"
         id="path102" />
      <path
         d="m 7360.9,1028.06 c 0,-25.1 9.41,-45.439 21.02,-45.439 11.61,0 21.02,20.339 21.02,45.439 0,25.09 -9.41,45.43 -21.02,45.43 -11.61,0 -21.02,-20.34 -21.02,-45.43"
         style="fill:#fce0e9;fill-opacity:1;fill-rule:nonzero;stroke:none"
         id="path104" />
      <path
         d="m 7223.34,957.492 c 0,-25.101 9.42,-45.441 21.03,-45.441 11.61,0 21.02,20.34 21.02,45.441 0,25.09 -9.41,45.428 -21.02,45.428 -11.61,0 -21.03,-20.338 -21.03,-45.428"
         style="fill:#fce0e9;fill-opacity:1;fill-rule:nonzero;stroke:none"
         id="path106" />
      <path
         d="m 7085.79,874.359 c 0,-25.097 9.41,-45.437 21.02,-45.437 11.61,0 21.03,20.34 21.03,45.437 0,25.082 -9.42,45.43 -21.03,45.43 -11.61,0 -21.02,-20.348 -21.02,-45.43"
         style="fill:#fce0e9;fill-opacity:1;fill-rule:nonzero;stroke:none"
         id="path108" />
      <path
         d="m 6556.64,874.359 c 0,-25.097 -9.42,-45.437 -21.03,-45.437 -11.61,0 -21.03,20.34 -21.03,45.437 0,25.082 9.42,45.43 21.03,45.43 11.61,0 21.03,-20.348 21.03,-45.43"
         style="fill:#fce0e9;fill-opacity:1;fill-rule:nonzero;stroke:none"
         id="path110" />
      <path
         d="m 2848.2,1970.42 v -238.97 c 0,-282.6 -381.23,-511.67 -851.17,-511.67 -469.96,0 -850.96,229.07 -850.96,511.67 v 238.97 c 0,-41.09 8.01,-81.13 23.39,-119.49 89.56,-225.06 426.11,-392.18 827.57,-392.18 401.45,0 738.21,167.12 827.77,392.18 15.39,38.36 23.4,78.4 23.4,119.49"
         style="fill:#5e19f4;fill-opacity:1;fill-rule:nonzero;stroke:none"
         id="path112" />
      <path
         d="m 2848.2,1970.42 c 0,-41.09 -8.01,-81.13 -23.4,-119.49 -89.56,-225.06 -426.32,-392.18 -827.77,-392.18 -401.46,0 -738.01,167.12 -827.57,392.18 -15.38,38.36 -23.39,78.4 -23.39,119.49 0,282.6 381,511.67 850.96,511.67 469.94,0 851.17,-229.07 851.17,-511.67"
         style="fill:#f6f5fc;fill-opacity:1;fill-rule:nonzero;stroke:none"
         id="path114" />
      <path
         d="M 2607.69,2184.86 V 2013.5 c 0,-11.09 -0.84,-22.18 -2.51,-32.85 -27.62,-187.48 -289.37,-334.15 -608.04,-334.15 -318.86,0 -580.41,146.67 -608.02,334.15 -1.68,10.67 -2.52,21.76 -2.52,32.85 v 171.36 c 0,-29.5 5.65,-58.17 16.73,-85.57 4.4,-11.3 9.84,-22.39 15.91,-33.06 82.23,-144.59 309.88,-248.37 577.9,-248.37 267.83,0 495.68,103.78 577.91,248.37 6.07,10.67 11.51,21.76 15.9,33.06 10.88,27.4 16.74,56.07 16.74,85.57"
         style="fill:#5e19f4;fill-opacity:1;fill-rule:nonzero;stroke:none"
         id="path116" />
      <path
         d="m 2607.54,2184.82 c 0,-29.42 -5.67,-58.02 -16.73,-85.56 -64.24,-161.41 -305.82,-281.52 -593.81,-281.52 -288,0 -529.3,120.11 -593.54,281.52 -11.07,27.54 -16.74,56.14 -16.74,85.56 0,81.52 44.27,156.82 119.3,218.09 34.01,27.8 74.5,52.36 120.12,73.42 102.57,47.51 231.32,75.58 370.86,75.58 38.86,0 76.66,-2.16 113.37,-6.48 117.13,-12.96 222.13,-46.15 305.27,-93.39 118.22,-66.94 191.9,-161.95 191.9,-267.22"
         style="fill:#f6f5fc;fill-opacity:1;fill-rule:nonzero;stroke:none"
         id="path118" />
      <path
         d="m 1746.02,1361.7 c 0,-31.37 -13.03,-56.8 -29.1,-56.8 -16.08,0 -29.1,25.43 -29.1,56.8 0,31.36 13.02,56.79 29.1,56.79 16.07,0 29.1,-25.43 29.1,-56.79"
         style="fill:#f6f5fc;fill-opacity:1;fill-rule:nonzero;stroke:none"
         id="path120" />
      <path
         d="m 2030.51,1331.5 c 0,-31.36 -17.98,-56.78 -40.16,-56.78 -22.19,0 -40.17,25.42 -40.17,56.78 0,31.37 17.98,56.79 40.17,56.79 22.18,0 40.16,-25.42 40.16,-56.79"
         style="fill:#f6f5fc;fill-opacity:1;fill-rule:nonzero;stroke:none"
         id="path122" />
      <path
         d="m 2306.44,1360.08 c 0,-31.37 -15.36,-56.8 -34.32,-56.8 -18.96,0 -34.32,25.43 -34.32,56.8 0,31.36 15.36,56.79 34.32,56.79 18.96,0 34.32,-25.43 34.32,-56.79"
         style="fill:#f6f5fc;fill-opacity:1;fill-rule:nonzero;stroke:none"
         id="path124" />
      <path
         d="m 2607.69,1947.59 c 0,-29.29 -5.86,-58.17 -16.74,-85.58 -64.24,-161.52 -305.9,-281.41 -593.81,-281.41 -288.11,0 -529.57,119.89 -593.81,281.41 -11.08,27.41 -16.73,56.29 -16.73,85.58 0,11.09 0.84,22.18 2.52,33.06 27.61,-187.48 289.16,-334.15 608.02,-334.15 318.67,0 580.42,146.67 608.04,334.15 1.67,-10.88 2.51,-21.97 2.51,-33.06"
         style="fill:#4821b5;fill-opacity:1;fill-rule:nonzero;stroke:none"
         id="path126" />
      <path
         d="m 2149.38,3471.01 c -21.06,14.84 -44,25.91 -68.57,33.2 -118.48,35.09 -271.53,-18.09 -397.31,-152.5 -179.49,-191.64 -235.09,-476.13 -124.42,-635.65 1.07,-1.35 1.88,-2.7 2.97,-4.05 -2.71,1.62 -5.13,3.51 -7.84,5.4 -19.16,15.12 -36.43,33.47 -51.55,55.06 -110.66,159.52 -55.06,444.02 124.43,635.65 125.79,134.42 278.82,187.59 397.32,152.51 49.12,-14.31 92.3,-44.27 124.97,-89.62"
         style="fill:#4821b5;fill-opacity:1;fill-rule:nonzero;stroke:none"
         id="path128" />
      <path
         d="m 2536.43,3073.16 c -6.47,4.58 -14.31,7.55 -23.21,8.36 l -11.07,0.81 -23.21,1.89 -15.12,1.36 -208.1,17 c 2.17,11.06 4.05,21.86 5.4,32.66 0.81,6.21 1.62,12.41 2.16,18.62 l 159.24,-13.22 34.29,-2.7 c 10.53,-1.08 19.43,-4.86 26.72,-11.07 l 3.24,-3.24 1.35,-1.62 48.31,-48.85"
         style="fill:#4821b5;fill-opacity:1;fill-rule:nonzero;stroke:none"
         id="path130" />
      <path
         d="m 2140.2,3112.3 c -7.56,-57.49 -29.42,-117.69 -63.7,-172.75 -15.93,-25.92 -34.55,-50.48 -55.87,-73.15 -110.13,-117.68 -251.29,-143.6 -333.08,-67.75 -8.9,8.1 -17.27,17.55 -24.56,28.34 -1.89,2.71 -3.51,5.4 -5.12,8.1 -68.3,109.59 -29.43,297.18 89.6,424.31 80.98,86.37 178.69,123.34 257.23,106.88 17.55,-3.78 34.28,-9.98 49.4,-19.16 19.43,-11.61 36.71,-27.53 51.01,-48.05 34.28,-49.12 45.08,-116.06 35.09,-186.77 z m 407.57,-50.75 c -2.97,4.32 -6.48,7.83 -10.53,11.07 l -0.81,0.54 c -6.47,4.58 -14.31,7.55 -23.21,8.36 l -11.07,0.81 -23.21,1.89 -15.12,1.36 -208.1,17 c 2.17,11.06 4.05,21.86 5.4,32.66 0.81,6.21 1.62,12.41 2.16,18.62 10.26,97.17 -6.75,188.13 -54.25,256.42 -17,24.56 -37.25,44.81 -59.65,60.73 -21.06,14.84 -44,25.91 -68.57,33.2 -118.48,35.09 -271.53,-18.09 -397.31,-152.5 -179.49,-191.64 -235.09,-476.13 -124.42,-635.65 1.07,-1.35 1.88,-2.7 2.97,-4.05 14.3,-19.97 30.77,-36.98 48.58,-51.01 122.26,-94.48 319.03,-52.64 474.24,113.09 44.27,47.24 80.97,100.14 109.58,155.47 l 262.9,-21.86 c 37.52,-3.24 80.43,33.2 96.08,81.25 9.18,28.87 6.49,55.33 -5.66,72.6"
         style="fill:#f9486e;fill-opacity:1;fill-rule:nonzero;stroke:none"
         id="path132" />
      <path
         d="m 2110.37,2545.43 c -9.46,-22.13 -20.52,-43.99 -33.74,-65.05 -15.93,-25.91 -34.56,-50.48 -55.88,-73.14 -110.12,-117.69 -251.29,-143.6 -333.07,-67.76 -8.91,8.1 -17.28,17.55 -24.57,28.34 -1.89,2.71 -3.51,5.4 -5.13,8.1 -18.07,28.89 -28.34,63.16 -31.84,100.41 -45.62,-21.06 -86.11,-45.62 -120.12,-73.42 6.75,-54.52 24.3,-104.45 53.17,-146.01 1.09,-1.36 1.9,-2.71 2.97,-4.06 14.31,-19.97 30.77,-36.98 48.59,-51.01 122.27,-94.48 319.04,-52.64 474.24,113.09 44.26,47.24 80.97,100.14 109.58,155.47 l 221.07,-18.35 c -83.14,47.24 -188.14,80.43 -305.27,93.39"
         style="fill:#e8e8f9;fill-opacity:1;fill-rule:nonzero;stroke:none"
         id="path134" />
      <path
         d="m 5062.92,6059.74 c 0,-135.76 -72.33,-261.27 -189.74,-329.02 L 649.293,3292.04 c -41.84,-24.29 -88.801,-21.59 -125.781,-0.81 l -1.621,0.81 c -24.563,14.04 -44.532,36.17 -55.332,63.7 -5.664,14.31 -8.633,29.96 -8.633,46.7 v 4108.9 c 0,104.72 55.867,201.36 146.562,253.72 l 4205.802,2428.44 64.51,37.2 c 8.91,5.2 18.09,8.9 27.26,11.9 29.42,8.6 59.38,5.9 85.56,-5.7 42.91,-18.9 75.04,-61.2 75.04,-114.7 l 0.26,-4062.46"
         style="fill:#f6f5fc;fill-opacity:1;fill-rule:nonzero;stroke:none"
         id="path136" />
      <path
         d="m 1637.1,5933.87 v 0 c 0.07,-126.12 136.61,-204.89 245.82,-141.84 L 3672.61,6825.3 c 130.86,75.55 211.45,215.2 211.4,366.3 v 0 c -0.04,122.06 -132.18,198.32 -237.89,137.29 L 1840.53,6286.43 c -125.95,-72.71 -203.5,-207.13 -203.43,-352.56"
         style="fill:#e8e8f9;fill-opacity:1;fill-rule:nonzero;stroke:none"
         id="path138" />
      <path
         d="m 2674.88,5828.5 0.14,-154.34 c 0.03,-39.81 43.14,-64.65 77.61,-44.74 l 389.72,225.25 c 35.58,20.56 57.51,58.52 57.55,99.61 l 0.14,168.06 c 0.03,30.43 -32.9,49.47 -59.24,34.25 L 2725.98,5917.1 c -31.65,-18.27 -51.13,-52.05 -51.1,-88.6"
         style="fill:#fe617c;fill-opacity:1;fill-rule:nonzero;stroke:none"
         id="path140" />
      <path
         d="m 2720.98,7396.89 c -16.01,-25.8 -34.65,-50.31 -55.95,-73.06 -122.17,-130.5 -282.23,-148.1 -357.67,-39.52 -75.33,108.44 -37.59,302.14 84.58,432.64 122.01,130.34 282.23,148.11 357.57,39.67 34.25,-49.31 45.07,-116.23 35.18,-186.86 -7.73,-57.61 -29.54,-117.71 -63.71,-172.87 z m 436.62,142 -257.49,21.22 c 22.87,115.71 9.17,227.35 -46.59,307.62 -110.8,159.5 -346.06,133.4 -525.7,-58.48 -179.47,-191.71 -235.11,-476.36 -124.31,-635.87 110.91,-159.65 346.17,-133.56 525.64,58.15 44.24,47.26 81.11,100.19 109.69,155.52 l 262.85,-21.89 c 37.64,-3.26 80.54,33.11 96.07,81.14 9.3,28.85 6.38,55.4 -5.64,72.71 -7.85,11.3 -19.6,18.69 -34.52,19.88"
         style="fill:#5e19f4;fill-opacity:1;fill-rule:nonzero;stroke:none"
         id="path142" />
      <path
         d="m 2749.51,7756.62 c 34.25,-49.31 45.07,-116.23 35.18,-186.86 -7.73,-57.61 -29.54,-117.71 -63.71,-172.87 -16.01,-25.8 -34.65,-50.31 -55.95,-73.06 -122.17,-130.5 -282.23,-148.1 -357.67,-39.52 -75.33,108.44 -37.59,302.14 84.58,432.64 122.01,130.34 282.23,148.11 357.57,39.67"
         style="fill:#e8e8f9;fill-opacity:1;fill-rule:nonzero;stroke:none"
         id="path144" />
      <path
         d="m 2709.02,7615.83 c -3.06,-3.27 -6.52,-6.07 -10.27,-8.22 -15.83,-9.07 -30.91,-2.88 -33.7,13.82 -0.08,0.53 -12.95,69.26 -73.38,86.54 -59.5,17.05 -122.02,-38.79 -122.64,-39.36 -14.53,-13.16 -31.89,-12.73 -38.75,0.99 -6.89,13.68 -0.68,35.47 13.87,48.65 3.69,3.34 91.36,81.61 177.15,57.05 84.05,-24.06 100.44,-117.09 101.1,-121.03 2.12,-12.75 -3.55,-27.93 -13.38,-38.44"
         style="fill:#f8f8ff;fill-opacity:1;fill-rule:nonzero;stroke:none"
         id="path146" />
      <path
         d="m 2733.8,7584.76 c 8,-11.52 3.99,-32.08 -8.97,-45.93 -12.97,-13.84 -29.96,-15.73 -37.96,-4.21 -8.01,11.52 -3.98,32.08 8.97,45.93 12.96,13.84 29.96,15.72 37.96,4.21"
         style="fill:#f8f8ff;fill-opacity:1;fill-rule:nonzero;stroke:none"
         id="path148" />
      <path
         d="m 812.152,3848.98 0.293,-124.26 430.025,248.43 v 124.58 L 812.152,3848.98"
         style="fill:#bebdf9;fill-opacity:1;fill-rule:nonzero;stroke:none"
         id="path150" />
      <path
         d="m 1350.05,4159.74 0.3,-124.26 430.02,248.43 v 124.58 l -430.32,-248.75"
         style="fill:#bebdf9;fill-opacity:1;fill-rule:nonzero;stroke:none"
         id="path152" />
      <path
         d="m 4438.02,9555.42 c -2.16,-45.29 -28.05,-80.85 -57.83,-79.43 -29.78,1.41 -52.17,39.28 -50.01,84.57 2.16,45.28 28.05,80.85 57.82,79.43 29.79,-1.42 52.18,-39.28 50.02,-84.57"
         style="fill:#5e19f4;fill-opacity:1;fill-rule:nonzero;stroke:none"
         id="path154" />
      <path
         d="m 4658.51,9682.83 c -2.16,-45.29 -28.05,-80.86 -57.83,-79.44 -29.78,1.42 -52.17,39.29 -50.01,84.57 2.16,45.29 28.05,80.86 57.83,79.44 29.78,-1.42 52.17,-39.28 50.01,-84.57"
         style="fill:#fe617c;fill-opacity:1;fill-rule:nonzero;stroke:none"
         id="path156" />
      <path
         d="m 4866.76,9792.46 c -2.16,-45.29 -28.04,-80.85 -57.82,-79.43 -29.79,1.42 -52.18,39.28 -50.02,84.57 2.16,45.29 28.05,80.85 57.83,79.43 29.78,-1.41 52.17,-39.28 50.01,-84.57"
         style="fill:#bebdf9;fill-opacity:1;fill-rule:nonzero;stroke:none"
         id="path158" />
      <path
         d="m 4987.62,10236.9 c -26.18,11.6 -56.14,14.3 -85.56,5.7 -9.17,-3 -18.35,-6.7 -27.26,-11.9 l -64.51,-37.2 L 604.488,7765.06 c -90.695,-52.36 -146.562,-149 -146.562,-253.72 v -4108.9 c 0,-16.74 2.969,-32.39 8.633,-46.7 10.8,-27.53 30.769,-49.66 55.332,-63.7 l -131.985,66.67 c -9.179,3.24 -18.086,8.1 -26.179,13.5 l -1.348,0.54 c -16.738,11.07 -31.309,26.18 -41.301,44.26 -10.254,18.09 -16.199,39.14 -16.199,62.08 v 4108.64 c 0,104.72 55.879,201.62 146.57,253.98 L 4721.75,10307.1 c 42.65,24.8 90.97,21.1 127.68,-1.3 l 138.19,-68.9"
         style="fill:#5e19f4;fill-opacity:1;fill-rule:nonzero;stroke:none"
         id="path160" />
      <path
         d="m 1898.55,2068.41 c 4.86,0.27 9.44,0.54 14.31,1.08 -3.51,-0.54 -7.29,-0.81 -11.07,-1.08 h -3.24"
         style="fill:#201d1e;fill-opacity:1;fill-rule:nonzero;stroke:none"
         id="path162" />
      <path
         d="m 1881.55,2067.87 c 5.66,0.27 11.33,0.27 17,0.54 -3.51,-0.27 -7.02,-0.54 -10.53,-0.54 -1.35,0 -2.97,-0.27 -4.31,-0.27 -0.82,0 -1.35,0 -2.16,0.27"
         style="fill:#201d1e;fill-opacity:1;fill-rule:nonzero;stroke:none"
         id="path164" />
      <path
         d="m 3675.06,7045.67 c -3,-4.83 -6.48,-9.42 -10.47,-13.68 -22.88,-24.44 -52.85,-27.73 -66.97,-7.4 -14.1,20.3 -7.04,56.57 15.84,81 22.84,24.41 52.84,27.73 66.94,7.43 6.42,-9.24 8.44,-21.76 6.6,-34.99 -1.46,-10.78 -5.54,-22.04 -11.94,-32.36 z m 81.75,26.58 -48.21,3.98 c 4.29,21.66 1.72,42.56 -8.72,57.59 -20.74,29.86 -64.8,24.98 -98.43,-10.95 -33.59,-35.89 -44.01,-89.19 -23.27,-119.05 20.77,-29.89 64.81,-25.01 98.42,10.89 8.28,8.85 15.18,18.76 20.53,29.11 l 49.21,-4.09 c 7.05,-0.61 15.08,6.19 17.99,15.19 1.74,5.4 1.2,10.37 -1.05,13.61 -1.48,2.12 -3.68,3.5 -6.47,3.72"
         style="fill:#bebdf9;fill-opacity:1;fill-rule:nonzero;stroke:none"
         id="path166" />
      <path
         d="M 4891.6,750.652 V 511.672 C 4891.6,229.102 4510.38,0 4040.42,0 3570.48,0 3189.47,229.102 3189.47,511.672 v 238.98 c 0,-41.101 8,-81.14 23.39,-119.492 C 3302.43,406.09 3638.97,239 4040.42,239 c 401.46,0 738.22,167.09 827.79,392.16 15.38,38.352 23.39,78.391 23.39,119.492"
         style="fill:#5e19f4;fill-opacity:1;fill-rule:nonzero;stroke:none"
         id="path168" />
      <path
         d="m 4891.6,750.652 c 0,-41.101 -8.01,-81.14 -23.39,-119.492 C 4778.64,406.09 4441.88,239 4040.42,239 c -401.45,0 -737.99,167.09 -827.56,392.16 -15.39,38.352 -23.39,78.391 -23.39,119.492 0,282.598 381.01,511.668 850.95,511.668 469.96,0 851.18,-229.07 851.18,-511.668"
         style="fill:#f6f5fc;fill-opacity:1;fill-rule:nonzero;stroke:none"
         id="path170" />
      <path
         d="M 4651.09,965.09 V 793.73 c 0,-11.089 -0.83,-22.191 -2.51,-32.847 -27.62,-187.481 -289.37,-334.153 -608.03,-334.153 -318.88,0 -580.42,146.672 -608.04,334.153 -1.68,10.656 -2.51,21.758 -2.51,32.847 v 171.36 c 0,-29.5 5.65,-58.168 16.74,-85.578 4.4,-11.301 9.84,-22.391 15.9,-33.051 82.23,-144.582 309.87,-248.359 577.91,-248.359 267.81,0 495.67,103.777 577.9,248.359 6.07,10.66 11.51,21.75 15.9,33.051 10.88,27.41 16.74,56.078 16.74,85.578"
         style="fill:#5e19f4;fill-opacity:1;fill-rule:nonzero;stroke:none"
         id="path172" />
      <path
         d="m 4650.95,965.23 c 0,-29.429 -5.66,-58.308 -16.73,-85.828 -64.24,-161.41 -305.81,-281.25 -593.81,-281.25 -287.99,0 -529.3,119.84 -593.54,281.25 -11.06,27.52 -17,56.399 -17,85.828 0,173.55 200.54,319.03 470.18,357.09 45.08,6.75 92.04,9.99 140.36,9.99 83.68,0 163.3,-9.99 235.91,-28.34 219.97,-55.61 374.63,-186.24 374.63,-338.74"
         style="fill:#f6f5fc;fill-opacity:1;fill-rule:nonzero;stroke:none"
         id="path174" />
      <path
         d="m 3789.43,141.902 c 0,-31.3 -13.04,-56.8004 -29.11,-56.8004 -16.07,0 -29.1,25.5004 -29.1,56.8004 0,31.399 13.03,56.797 29.1,56.797 16.07,0 29.11,-25.398 29.11,-56.797"
         style="fill:#f6f5fc;fill-opacity:1;fill-rule:nonzero;stroke:none"
         id="path176" />
      <path
         d="m 4073.92,111.699 c 0,-31.2967 -17.99,-56.8006 -40.18,-56.8006 -22.17,0 -40.16,25.5039 -40.16,56.8006 0,31.403 17.99,56.801 40.16,56.801 22.19,0 40.18,-25.398 40.18,-56.801"
         style="fill:#f6f5fc;fill-opacity:1;fill-rule:nonzero;stroke:none"
         id="path178" />
      <path
         d="m 4349.85,140.301 c 0,-31.403 -15.37,-56.801 -34.33,-56.801 -18.95,0 -34.32,25.398 -34.32,56.801 0,31.398 15.37,56.801 34.32,56.801 18.96,0 34.33,-25.403 34.33,-56.801"
         style="fill:#f6f5fc;fill-opacity:1;fill-rule:nonzero;stroke:none"
         id="path180" />
      <path
         d="m 4651.09,727.813 c 0,-29.282 -5.86,-58.161 -16.74,-85.571 -64.23,-161.531 -305.9,-281.422 -593.8,-281.422 -288.11,0 -529.58,119.891 -593.81,281.422 -11.09,27.41 -16.74,56.289 -16.74,85.571 0,11.097 0.83,22.187 2.51,33.07 27.62,-187.481 289.16,-334.153 608.04,-334.153 318.66,0 580.41,146.672 608.03,334.153 1.68,-10.883 2.51,-21.973 2.51,-33.07"
         style="fill:#4821b5;fill-opacity:1;fill-rule:nonzero;stroke:none"
         id="path182" />
      <path
         d="m 3941.95,848.629 c 4.86,0.281 9.45,0.551 14.3,1.09 -3.5,-0.539 -7.28,-0.809 -11.06,-1.09 h -3.24"
         style="fill:#201d1e;fill-opacity:1;fill-rule:nonzero;stroke:none"
         id="path184" />
      <path
         d="m 3924.95,848.102 c 5.66,0.269 11.33,0.269 17,0.527 -3.51,-0.258 -7.01,-0.527 -10.53,-0.527 -1.35,0 -2.97,-0.282 -4.32,-0.282 -0.81,0 -1.34,0 -2.15,0.282"
         style="fill:#201d1e;fill-opacity:1;fill-rule:nonzero;stroke:none"
         id="path186" />
      <path
         d="m 4276.24,2335.31 v -633.19 l -133.62,77.13 -49.2,28.55 -168.85,-345.6 -13.97,-28.55 -172.19,99.61 185.56,372.93 -195.88,112.98 548.15,316.14"
         style="fill:#f9486e;fill-opacity:1;fill-rule:nonzero;stroke:none"
         id="path188" />
      <path
         d="m 4276.24,2335.31 h 63.17 v -633.19 h -63.17 v 633.19"
         style="fill:#4821b5;fill-opacity:1;fill-rule:nonzero;stroke:none"
         id="path190" />
      <path
         d="m 3910.6,1433.65 h 63.48 l 168.54,345.6 -49.2,28.55 -182.82,-374.15"
         style="fill:#4821b5;fill-opacity:1;fill-rule:nonzero;stroke:none"
         id="path192" />
      <path
         d="m 4276.32,1303.97 v -137.39 l -133.61,77.2 -49.4,28.34 -168.69,-345.491 -14.04,-28.609 -172.21,99.601 161.68,324.699 c 45.08,6.75 92.04,9.99 140.36,9.99 83.68,0 163.3,-9.99 235.91,-28.34"
         style="fill:#e8e8f9;fill-opacity:1;fill-rule:nonzero;stroke:none"
         id="path194" />
      <path
         d="M 9112.17,7597.44 V 4438.1 c 0,-39.94 -24.56,-71.53 -56.95,-84.75 l -124.97,-58.57 c 17.55,16.19 28.89,39.4 28.89,66.67 v 3159.34 c 0,99.05 -52.63,190.56 -138.47,239.95 l -3040.58,1755.52 -32.93,19.17 -15.39,8.9 c -23.48,13.5 -49.12,15.39 -72.07,8.64 l 132.8,67.48 c 0,0 0,0 0.28,0 26.72,15.66 61.27,18.08 92.04,0.27 L 8973.72,7837.4 c 85.83,-49.67 138.45,-141.17 138.45,-239.96"
         style="fill:#5e19f4;fill-opacity:1;fill-rule:nonzero;stroke:none"
         id="path196" />
      <path
         d="M 8959.14,7520.79 V 4361.45 c 0,-27.27 -11.34,-50.48 -28.89,-66.67 h -0.27 c -27.8,-25.65 -70.44,-33.74 -107.69,-12.15 L 5724.76,6071.62 c -80.98,46.7 -130.64,132.79 -130.64,226.19 v 3166.9 c 0,43.19 28.61,76.65 64.78,87.99 l 0.8,0.27 c 22.95,6.75 48.59,4.86 72.07,-8.64 l 15.39,-8.9 32.93,-19.17 3040.58,-1755.52 c 85.84,-49.39 138.47,-140.9 138.47,-239.95"
         style="fill:#f6f5fc;fill-opacity:1;fill-rule:nonzero;stroke:none"
         id="path198" />
      <path
         d="m 5771.38,9148.62 -0.11,-91.89 c -0.03,-30.57 16.26,-58.82 42.74,-74.11 l 602.81,-348.03 c 27.93,-16.13 62.84,4.03 62.84,36.28 v 77.98 c 0,33.2 -17.71,63.88 -46.46,80.49 l -607.29,350.71 c -24.22,13.99 -54.49,-3.47 -54.53,-31.43"
         style="fill:#fe617c;fill-opacity:1;fill-rule:nonzero;stroke:none"
         id="path200" />
      <path
         d="m 5771.32,8692.88 v 0 c -0.06,-56.98 30.31,-109.64 79.63,-138.13 l 1238.9,-715.49 c 43.46,-25.1 97.77,6.34 97.65,56.53 v 0 c -0.13,56.86 -30.52,109.35 -79.76,137.78 l -1238.94,715.5 c -43.29,25 -97.42,-6.2 -97.48,-56.19"
         style="fill:#e8e8f9;fill-opacity:1;fill-rule:nonzero;stroke:none"
         id="path202" />
      <path
         d="m 5771.46,8294.34 v -204.32 l 707.96,-409 0.46,204.32 -708.42,409"
         style="fill:#7b67f4;fill-opacity:1;fill-rule:nonzero;stroke:none"
         id="path204" />
      <path
         d="M 9591.02,6676.3 V 4436.02 c 0,-8.91 -1.62,-17.54 -4.32,-25.1 -4.86,-14.31 -13.77,-26.46 -25.37,-35.09 v -0.27 c -22.94,-17.82 -55.87,-22.4 -84.75,-5.67 l -1221.63,705.29 c -49.94,28.87 -80.97,82.05 -80.97,140.08 v 2225.17 c 0,32.66 19.7,59.11 45.88,70.72 11.06,5.13 22.95,7.56 35.36,7.02 11.87,-0.27 24.29,-3.51 35.9,-10.26 l 36.17,-20.78 1193.28,-688.82 c 43.73,-25.11 70.45,-71.8 70.45,-122.01"
         style="fill:#5e19f4;fill-opacity:1;fill-rule:nonzero;stroke:none"
         id="path206" />
      <path
         d="m 6479.82,7449.36 c -4.58,0 -9.22,1.16 -13.47,3.61 l -708.63,409.13 c -12.91,7.46 -17.34,23.96 -9.88,36.87 7.46,12.93 23.98,17.34 36.87,9.89 l 708.63,-409.13 c 12.91,-7.46 17.35,-23.96 9.89,-36.88 -5.01,-8.66 -14.08,-13.49 -23.41,-13.49"
         style="fill:#e8e8f9;fill-opacity:1;fill-rule:nonzero;stroke:none"
         id="path208" />
      <path
         d="m 6656.74,7142.49 c -4.59,0 -9.23,1.16 -13.46,3.61 l -885.56,511.18 c -12.91,7.45 -17.34,23.96 -9.88,36.87 7.46,12.92 23.98,17.33 36.87,9.88 l 885.56,-511.17 c 12.91,-7.46 17.34,-23.96 9.88,-36.88 -5.01,-8.66 -14.08,-13.49 -23.41,-13.49"
         style="fill:#e8e8f9;fill-opacity:1;fill-rule:nonzero;stroke:none"
         id="path210" />
      <path
         d="m 6833.84,6835.75 c -4.58,0 -9.22,1.16 -13.46,3.63 l -1062.66,613.73 c -12.91,7.45 -17.34,23.96 -9.88,36.87 7.46,12.93 23.98,17.38 36.87,9.86 l 1062.66,-613.73 c 12.92,-7.45 17.34,-23.96 9.88,-36.87 -5.01,-8.65 -14.07,-13.49 -23.41,-13.49"
         style="fill:#e8e8f9;fill-opacity:1;fill-rule:nonzero;stroke:none"
         id="path212" />
      <path
         d="m 5771.58,7067.18 v -204.32 l 707.96,-409 0.45,204.32 -708.41,409"
         style="fill:#7b67f4;fill-opacity:1;fill-rule:nonzero;stroke:none"
         id="path214" />
      <path
         d="m 6479.96,6222.2 c -4.59,0 -9.23,1.15 -13.48,3.61 l -708.62,409.13 c -12.92,7.45 -17.35,23.96 -9.89,36.87 7.45,12.92 23.99,17.33 36.88,9.88 l 708.62,-409.12 c 12.92,-7.46 17.34,-23.96 9.89,-36.88 -5.01,-8.66 -14.08,-13.49 -23.4,-13.49"
         style="fill:#e8e8f9;fill-opacity:1;fill-rule:nonzero;stroke:none"
         id="path216" />
      <path
         d="m 6656.85,5915.33 c -4.59,0 -9.23,1.15 -13.48,3.61 l -885.51,511.17 c -12.92,7.46 -17.35,23.96 -9.89,36.88 7.45,12.93 23.99,17.36 36.88,9.89 l 885.52,-511.18 c 12.92,-7.46 17.34,-23.96 9.88,-36.88 -5,-8.66 -14.07,-13.49 -23.4,-13.49"
         style="fill:#e8e8f9;fill-opacity:1;fill-rule:nonzero;stroke:none"
         id="path218" />
      <path
         d="m 6833.95,5608.59 c -4.58,0 -9.23,1.16 -13.47,3.62 l -1062.62,613.74 c -12.92,7.45 -17.35,23.96 -9.89,36.86 7.45,12.92 23.99,17.38 36.88,9.88 l 1062.62,-613.74 c 12.92,-7.45 17.35,-23.96 9.89,-36.86 -5.01,-8.66 -14.07,-13.5 -23.41,-13.5"
         style="fill:#e8e8f9;fill-opacity:1;fill-rule:nonzero;stroke:none"
         id="path220" />
      <path
         d="m 8073.87,5915.46 c -4.59,0 -9.23,1.16 -13.48,3.61 L 5757.72,7248.31 c -12.91,7.45 -17.34,23.96 -9.88,36.87 7.46,12.94 23.98,17.33 36.87,9.88 L 8087.39,5965.83 c 12.92,-7.46 17.34,-23.96 9.89,-36.87 -5.01,-8.67 -14.08,-13.5 -23.41,-13.5"
         style="fill:#e8e8f9;fill-opacity:1;fill-rule:nonzero;stroke:none"
         id="path222" />
      <path
         d="m 7044.68,7954.68 c -1.08,7.72 0.1,15.04 3.85,20.43 8.23,11.85 25.74,9.91 39.08,-4.34 13.36,-14.27 17.48,-35.44 9.25,-47.29 -8.25,-11.87 -25.74,-9.95 -39.1,4.32 -2.33,2.48 -4.37,5.16 -6.12,7.98 -3.74,6.03 -6.12,12.6 -6.96,18.9 z m -44.54,-5.55 c -1.31,-1.89 -1.63,-4.79 -0.61,-7.94 1.69,-5.26 6.38,-9.23 10.49,-8.88 l 28.74,2.4 c 3.13,-6.05 7.15,-11.83 11.99,-17 19.62,-20.96 45.34,-23.81 57.46,-6.36 12.11,17.44 6.03,48.55 -13.59,69.51 -19.64,20.98 -45.35,23.83 -57.47,6.39 -6.09,-8.77 -7.59,-20.98 -5.09,-33.63 l -28.14,-2.32 c -1.63,-0.12 -2.92,-0.93 -3.78,-2.17"
         style="fill:#bebdf9;fill-opacity:1;fill-rule:nonzero;stroke:none"
         id="path224" />
      <path
         d="m 8715,7567.92 c 1.48,-31.03 19.22,-55.39 39.62,-54.42 20.4,0.97 35.75,26.91 34.27,57.94 -1.48,31.03 -19.22,55.4 -39.62,54.42 -20.4,-0.97 -35.74,-26.91 -34.27,-57.94"
         style="fill:#bebdf9;fill-opacity:1;fill-rule:nonzero;stroke:none"
         id="path226" />
      <path
         d="m 8563.95,7655.21 c 1.47,-31.03 19.21,-55.4 39.62,-54.42 20.4,0.97 35.74,26.91 34.26,57.94 -1.48,31.03 -19.21,55.39 -39.62,54.42 -20.4,-0.97 -35.74,-26.91 -34.26,-57.94"
         style="fill:#fe617c;fill-opacity:1;fill-rule:nonzero;stroke:none"
         id="path228" />
      <path
         d="m 8421.26,7730.32 c 1.49,-31.03 19.22,-55.39 39.62,-54.42 20.41,0.97 35.76,26.91 34.27,57.94 -1.47,31.03 -19.22,55.39 -39.62,54.42 -20.4,-0.97 -35.74,-26.91 -34.27,-57.94"
         style="fill:#5e19f4;fill-opacity:1;fill-rule:nonzero;stroke:none"
         id="path230" />
      <path
         d="m 8351.22,6561.02 v -650.76 c 0,-45.24 24.15,-87.06 63.34,-109.67 l 906.06,-522.83 c 41.46,-23.93 93.29,6 93.29,53.88 l -0.02,642.2 c 0,42.14 -22.49,81.08 -58.98,102.15 l -921.89,532.26 c -36.36,20.99 -81.8,-5.25 -81.8,-47.23"
         style="fill:#f9486e;fill-opacity:1;fill-rule:nonzero;stroke:none"
         id="path232" />
      <path
         d="m 8351.22,5625.07 v -74.22 c 0,-13.18 7.03,-25.36 18.44,-31.94 l 165.85,-95.74 c 12.72,-7.34 28.62,1.84 28.62,16.53 v 68.94 c 0,12.91 -6.9,24.85 -18.08,31.31 l -171.15,98.8 c -10.52,6.07 -23.68,-1.52 -23.68,-13.68"
         style="fill:#bebdf9;fill-opacity:1;fill-rule:nonzero;stroke:none"
         id="path234" />
      <path
         d="m 8884.85,5055.98 c -2.3,0 -4.61,0.57 -6.75,1.81 l -533.63,308.07 c -6.46,3.74 -8.67,11.99 -4.93,18.44 3.72,6.45 11.99,8.62 18.42,4.94 l 533.64,-308.09 c 6.45,-3.72 8.67,-11.97 4.93,-18.42 -2.48,-4.33 -7.04,-6.75 -11.68,-6.75"
         style="fill:#e8e8f9;fill-opacity:1;fill-rule:nonzero;stroke:none"
         id="path236" />
      <path
         d="m 9103.73,4826.84 c -2.29,0 -4.61,0.58 -6.74,1.82 l -752.52,434.35 c -6.46,3.73 -8.67,11.98 -4.93,18.44 3.72,6.45 11.99,8.65 18.42,4.94 l 752.52,-434.38 c 6.46,-3.71 8.67,-11.96 4.93,-18.43 -2.48,-4.31 -7.04,-6.74 -11.68,-6.74"
         style="fill:#e8e8f9;fill-opacity:1;fill-rule:nonzero;stroke:none"
         id="path238" />
      <path
         d="m 9236.79,4647.21 c -2.29,0 -4.61,0.57 -6.75,1.81 l -885.57,511.47 c -6.46,3.72 -8.67,11.97 -4.93,18.43 3.72,6.45 11.99,8.63 18.42,4.94 l 885.58,-511.49 c 6.45,-3.71 8.67,-11.96 4.93,-18.41 -2.48,-4.33 -7.04,-6.75 -11.68,-6.75"
         style="fill:#e8e8f9;fill-opacity:1;fill-rule:nonzero;stroke:none"
         id="path240" />
      <path
         d="m 8415.24,6894.04 3.35,-27.46 5.72,19.61 39.78,111.44 21.37,-12.6 35.22,-155.64 4.95,-26.31 4.43,23.4 31.58,113.65 25.43,-15 -49.13,-164.36 -23.09,13.61 -37.61,163.05 -2.88,16.42 -3.18,-12.84 -42.91,-115.58 -23.07,13.6 -43.78,219.13 25.3,-14.93 28.52,-149.19"
         style="fill:#f6f5fc;fill-opacity:1;fill-rule:nonzero;stroke:none"
         id="path242" />
      <path
         d="m 8662.48,6813.48 c -9.85,5.81 -18.15,7.1 -24.93,3.87 -6.77,-3.21 -11.04,-10.81 -12.78,-22.8 l 71.43,-42.11 0.02,1.85 c -0.52,12.78 -3.74,24.35 -9.61,34.67 -5.88,10.35 -13.92,18.51 -24.13,24.52 z m 1.29,-129.56 c -19.31,11.39 -34.97,27.01 -46.91,46.86 -11.96,19.83 -17.79,40.38 -17.5,61.62 l 0.05,4.49 c 0.18,14.12 3.08,25.17 8.62,33.1 5.56,7.91 13.25,12.15 23.04,12.71 9.77,0.55 20.35,-2.51 31.71,-9.2 18.52,-10.93 32.84,-25.53 42.97,-43.8 10.08,-18.25 15.02,-38.76 14.7,-61.51 l -0.13,-10.15 -96.6,56.97 c 0.12,-14.26 4.08,-28.04 11.85,-41.33 7.73,-13.27 17.67,-23.49 29.79,-30.65 8.62,-5.07 15.94,-7.63 21.99,-7.63 6,-0.01 11.3,1.56 15.86,4.72 l 14.73,-20.37 c -12.19,-11.31 -30.23,-9.92 -54.17,4.17"
         style="fill:#f6f5fc;fill-opacity:1;fill-rule:nonzero;stroke:none"
         id="path244" />
      <path
         d="m 8774.12,6621.53 -24.36,14.37 2.74,202.33 24.36,-14.37 -2.74,-202.33"
         style="fill:#f6f5fc;fill-opacity:1;fill-rule:nonzero;stroke:none"
         id="path246" />
      <path
         d="m 8870.59,6582.06 c 8.7,-5.13 16.34,-6.99 22.9,-5.54 6.59,1.43 10.25,5.91 11.07,13.38 l 23.07,-13.6 c -0.53,-7.9 -3.46,-14.01 -8.73,-18.35 -5.29,-4.31 -12.27,-6.11 -21.01,-5.39 -8.72,0.72 -17.89,3.91 -27.56,9.61 -19.41,11.44 -34.77,27.03 -46.05,46.74 -11.31,19.7 -16.82,40.8 -16.5,63.28 l 0.05,4.09 c 0.18,13.88 2.9,24.71 8.14,32.51 5.25,7.81 12.69,11.88 22.28,12.23 9.62,0.35 20.92,-3.3 33.95,-10.98 16,-9.43 29.2,-22.06 39.67,-37.86 10.46,-15.83 15.95,-31.58 16.42,-47.27 l -23.06,13.6 c -0.59,9.63 -3.96,19.28 -10.16,28.9 -6.22,9.63 -13.91,17.16 -23.16,22.61 -12.36,7.29 -22.04,8.49 -28.97,3.59 -6.93,-4.89 -10.51,-15.76 -10.73,-32.62 l -0.08,-4.61 c -0.21,-16.42 2.98,-31.07 9.65,-43.93 6.64,-12.86 16.26,-23 28.81,-30.39"
         style="fill:#f6f5fc;fill-opacity:1;fill-rule:nonzero;stroke:none"
         id="path248" />
      <path
         d="m 8973.47,6574.26 c -0.21,-15.82 3.26,-30.69 10.49,-44.58 7.2,-13.89 16.94,-24.45 29.26,-31.71 12.39,-7.31 22.27,-8.24 29.7,-2.84 7.44,5.4 11.25,16.84 11.5,34.32 0.2,15.63 -3.3,30.48 -10.6,44.57 -7.3,14.08 -17.11,24.75 -29.42,32 -12.04,7.11 -21.8,8.01 -29.31,2.79 -7.51,-5.22 -11.38,-16.73 -11.62,-34.55 z m -24.49,17.36 c 0.21,13.95 3.11,24.89 8.75,32.8 5.64,7.9 13.42,12.02 23.28,12.31 9.88,0.29 21.11,-3.28 33.68,-10.69 19.43,-11.45 35.03,-27.43 46.84,-47.93 11.81,-20.51 17.56,-41.93 17.26,-64.23 l -0.02,-1.71 c -0.18,-13.88 -3.03,-24.77 -8.46,-32.65 -5.48,-7.89 -13.18,-11.99 -23.15,-12.31 -10.01,-0.31 -21.37,3.31 -34.21,10.88 -19.31,11.38 -34.92,27.35 -46.71,47.84 -11.83,20.52 -17.57,41.84 -17.26,63.97 v 1.72"
         style="fill:#f6f5fc;fill-opacity:1;fill-rule:nonzero;stroke:none"
         id="path250" />
      <path
         d="m 9133.29,6553.46 0.43,-16.18 c 10.6,6.14 24.81,3.96 42.58,-6.5 19.95,-11.77 33.42,-27.43 40.4,-46.95 4.83,4.05 11.08,5.95 18.74,5.68 7.68,-0.26 16.69,-3.45 27.07,-9.56 31.27,-18.44 46.96,-44.37 47.01,-77.79 l -1.29,-95.5 -24.39,14.38 1.27,94.05 c 0.16,10.19 -2.06,19.18 -6.67,26.98 -4.59,7.79 -12.36,14.92 -23.36,21.4 -9.04,5.32 -16.57,7.05 -22.63,5.18 -6.07,-1.86 -9.65,-7.09 -10.71,-15.66 l -1.29,-94.57 -24.52,14.46 1.27,93.39 c 0.29,20.71 -9.73,37.07 -30.05,49.04 -15.97,9.42 -26.99,9.05 -33.05,-1.1 l -1.43,-104.05 -24.4,14.38 1.92,142.52 23.1,-13.6"
         style="fill:#f6f5fc;fill-opacity:1;fill-rule:nonzero;stroke:none"
         id="path252" />
      <path
         d="m 9402.86,6377.01 c -9.87,5.82 -18.14,7.1 -24.92,3.88 -6.79,-3.22 -11.04,-10.81 -12.81,-22.8 l 71.44,-42.12 0.03,1.84 c -0.51,12.82 -3.72,24.36 -9.63,34.69 -5.85,10.33 -13.92,18.51 -24.11,24.51 z m 1.31,-129.55 c -19.32,11.39 -34.98,27.02 -46.92,46.84 -11.96,19.85 -17.79,40.38 -17.5,61.65 l 0.05,4.47 c 0.18,14.14 3.06,25.16 8.59,33.1 5.57,7.93 13.26,12.14 23.04,12.73 9.8,0.54 20.38,-2.52 31.71,-9.22 18.53,-10.92 32.84,-25.53 43,-43.79 10.08,-18.27 14.99,-38.78 14.67,-61.52 l -0.12,-10.15 -96.61,56.96 c 0.15,-14.25 4.11,-28.02 11.89,-41.3 7.72,-13.3 17.66,-23.51 29.79,-30.66 8.58,-5.07 15.94,-7.63 21.95,-7.63 6.03,-0.01 11.31,1.57 15.9,4.7 l 14.72,-20.37 c -12.19,-11.28 -30.25,-9.91 -54.16,4.19"
         style="fill:#f6f5fc;fill-opacity:1;fill-rule:nonzero;stroke:none"
         id="path254" />
      <path
         d="m 9667.68,6727.59 -0.27,-2240.56 c 0,-27.8 -14.3,-50.47 -34.54,-63.7 0,0 -0.28,-0.26 -0.81,-0.54 -0.55,-0.53 -1.9,-1.08 -3.25,-2.15 -14.84,-9.72 -65.05,-42.92 -67.48,-45.08 v 0.27 c 11.6,8.63 20.51,20.78 25.37,35.09 2.7,7.56 4.32,16.19 4.32,25.1 V 6676.3 c 0,50.21 -26.72,96.9 -70.45,122.01 l -1193.28,688.82 -36.17,20.78 c -11.61,6.75 -24.03,9.99 -35.9,10.26 -12.41,0.54 -24.3,-1.89 -35.36,-7.02 l 62.35,42.92 1.09,0.8 c 23.47,16.74 55.85,20.79 84.47,4.32 l 1229.19,-709.6 c 43.73,-25.1 70.72,-71.8 70.72,-122"
         style="fill:#4821b5;fill-opacity:1;fill-rule:nonzero;stroke:none"
         id="path256" />
      <path
         d="m 9438.35,6665.79 c 0.99,-20.67 12.8,-36.9 26.39,-36.25 13.59,0.65 23.81,17.93 22.82,38.6 -0.98,20.66 -12.8,36.89 -26.38,36.24 -13.6,-0.64 -23.81,-17.92 -22.83,-38.59"
         style="fill:#f6f5fc;fill-opacity:1;fill-rule:nonzero;stroke:none"
         id="path258" />
      <path
         d="m 9337.74,6723.93 c 0.98,-20.67 12.79,-36.9 26.39,-36.25 13.58,0.65 23.8,17.93 22.82,38.59 -0.99,20.67 -12.81,36.9 -26.39,36.25 -13.59,-0.64 -23.81,-17.92 -22.82,-38.59"
         style="fill:#fe617c;fill-opacity:1;fill-rule:nonzero;stroke:none"
         id="path260" />
      <path
         d="m 9242.7,6773.96 c 0.99,-20.67 12.8,-36.9 26.39,-36.25 13.59,0.64 23.8,17.93 22.83,38.59 -0.99,20.67 -12.8,36.9 -26.4,36.25 -13.58,-0.65 -23.81,-17.93 -22.82,-38.59"
         style="fill:#5e19f4;fill-opacity:1;fill-rule:nonzero;stroke:none"
         id="path262" />
      <path
         d="m 3552.74,6824.07 c 0,0 -4.02,13.7 -14.89,24.58 -10.87,10.88 -36.71,-9.06 -66.62,45.32 -29.91,54.38 72.06,95.16 67.52,132.32 -4.53,37.16 -48.62,130.06 -29.52,136.86 19.1,6.79 132.46,-244.04 145.79,-294.68 13.34,-50.63 -41.04,-84.62 -41.04,-84.62 l -61.24,40.22"
         style="fill:#fce0e9;fill-opacity:1;fill-rule:nonzero;stroke:none"
         id="path264" />
      <path
         d="m 4508.44,3310.26 c 0,0 16,-49.88 19.57,-103.36 3.57,-53.48 6,-88.27 -29.9,-108.54 -35.91,-20.27 -381.9,149.48 -359.06,194.51 22.85,45.03 229.24,33.29 229.24,33.29 l 140.15,-15.9"
         style="fill:#5e19f4;fill-opacity:1;fill-rule:nonzero;stroke:none"
         id="path266" />
      <path
         d="m 4354.4,3318.65 c -4.82,3.26 -8.48,6.1 -10.79,8.05 -1.93,1.52 -2.89,2.39 -2.89,2.39 0,0 -0.38,6.97 -1.35,20.24 -7.13,109.63 -41.61,642.98 -54.33,1000.57 v 0.66 c -3.08,83.09 -4.82,156.62 -4.82,213.17 0.19,189.68 15.6,321.06 28.51,398.27 9.64,56.56 17.92,84.18 17.92,84.18 l 82.47,3.92 -46.63,-85.7 130.62,6.09 c 0,0 14.26,-89.83 0,-261.46 -14.25,-171.4 -101.53,-397.84 -93.24,-756.31 5.01,-217.74 -22.74,-469.84 -45.47,-634.07"
         style="fill:#e6e4f2;fill-opacity:1;fill-rule:nonzero;stroke:none"
         id="path268" />
      <path
         d="m 4665.93,4811.26 c -13.48,-164.22 -97.29,-381.31 -89.39,-724.77 7.9,-343.46 -69.17,-776.32 -69.17,-776.32 0,0 -23.5,-21.75 -73.6,-20.67 -31.59,0.87 -60.1,16.11 -77.06,27.63 21.19,97.67 89.97,431.56 76.49,609.71 -16.18,210.11 64.16,583.6 89.97,719.55 26.01,135.94 0,333.45 0,333.45 l -57.41,72.87 200.17,9.14 c 0,0 13.68,-86.15 0,-250.59"
         style="fill:#fce0e9;fill-opacity:1;fill-rule:nonzero;stroke:none"
         id="path270" />
      <path
         d="m 4327.7,3142.7 c 0,0 19.85,-61.91 24.29,-128.28 4.42,-66.36 7.44,-109.54 -37.12,-134.69 -44.55,-25.16 -473.94,185.5 -445.58,241.38 28.35,55.89 284.47,41.32 284.47,41.32 l 173.94,-19.73"
         style="fill:#5e19f4;fill-opacity:1;fill-rule:nonzero;stroke:none"
         id="path272" />
      <path
         d="m 4493.11,4709.03 c -14.25,-171.4 -101.53,-397.84 -93.24,-756.31 5.01,-217.74 -22.74,-469.84 -45.47,-634.07 -1.16,-9.78 -2.51,-19.14 -3.66,-28.05 -0.2,-0.66 -0.2,-1.1 -0.2,-1.1 -12.71,-89.83 -22.92,-146.82 -22.92,-146.82 0,0 -24.47,-22.84 -76.87,-21.54 -52.41,1.31 -96.92,41.33 -96.92,41.33 0,0 -63.38,945.12 -63.19,1288.15 0.19,343.02 48.36,503.55 48.36,503.55 l 169.73,7.83 53.76,2.4 130.62,6.09 c 0,0 14.26,-89.83 0,-261.46"
         style="fill:#fce0e9;fill-opacity:1;fill-rule:nonzero;stroke:none"
         id="path274" />
      <path
         d="m 4601.05,6176.92 c 0,0 150.23,-29.51 167.39,-199.86 17.15,-170.37 98.32,-352.46 53.73,-419.2 -44.59,-66.73 -112.04,-48.48 -112.04,-48.48 0,0 -141.75,491.68 -140.62,495.11 1.13,3.44 31.54,172.43 31.54,172.43"
         style="fill:#ef3566;fill-opacity:1;fill-rule:nonzero;stroke:none"
         id="path276" />
      <path
         d="m 4523.17,4646.39 c -25.81,-135.95 -106.15,-509.44 -89.97,-719.55 13.48,-178.15 -55.3,-512.04 -76.49,-609.71 -0.77,0.44 -1.54,0.87 -2.31,1.52 22.73,164.23 50.48,416.33 45.47,634.07 -8.29,358.47 78.99,584.91 93.24,756.31 13.11,157.7 2.12,246.45 0.2,259.72 10.21,3.48 20.23,7.39 29.86,11.09 0,0 26.01,-197.51 0,-333.45"
         style="fill:#f9c5d8;fill-opacity:1;fill-rule:nonzero;stroke:none"
         id="path278" />
      <path
         d="m 4265.4,6270.82 c 0,0 20.54,-27.06 15.97,-76.95 -4.57,-49.89 -6.64,-103.63 -6.64,-103.63 l 154.13,-24 c 0,0 141.79,116.85 140.65,120.28 -1.15,3.43 -38.36,138.51 -40.91,163.47 -2.55,24.95 -167.19,61.53 -167.19,61.53 l -96.01,-140.7"
         style="fill:#f7d5e2;fill-opacity:1;fill-rule:nonzero;stroke:none"
         id="path280" />
      <path
         d="m 4243.25,6595.03 c 0,0 -34.21,-83.15 -46.64,-144.73 -19.13,-94.74 -7.77,-182.49 -7.77,-182.49 0,0 83.16,-10.37 202.25,36.14 119.09,46.51 120,292.87 120,292.87 0,0 -77.44,77.81 -83.71,78.23 -6.27,0.41 -184.13,-80.02 -184.13,-80.02"
         style="fill:#fce0e9;fill-opacity:1;fill-rule:nonzero;stroke:none"
         id="path282" />
      <path
         d="m 4243.25,6595.03 c 0,0 119.77,-40.19 100.33,-120.42 -19.44,-80.21 -83.61,-219.71 86.28,-239.21 169.9,-19.51 305.22,236.43 275.69,343.6 -29.53,107.19 -131.02,160.57 -177.07,171.49 -46.04,10.92 -194.97,44.5 -285.23,-155.46"
         style="fill:#11057c;fill-opacity:1;fill-rule:nonzero;stroke:none"
         id="path284" />
      <path
         d="m 4862.01,4456.49 c 0,0 -130.01,-296.72 -464.62,-204.03 -299.44,82.95 -397.98,44.88 -397.98,44.88 0,0 -29.93,153.42 14.87,401.39 44.6,248.18 71.62,255.44 71.62,255.44 0,0 267.77,121.38 452.44,137.91 64.17,5.66 118.12,-1.31 147.48,-30.45 113.55,-112.9 176.19,-605.14 176.19,-605.14"
         style="fill:#bebdf9;fill-opacity:1;fill-rule:nonzero;stroke:none"
         id="path286" />
      <path
         d="m 4862.01,4456.49 c 0,0 -30.01,184.46 -120.29,317.57 -90.27,133.13 -218.6,205.78 -218.6,205.78 l 15.22,112.24 c 64.17,5.66 118.12,-1.31 147.48,-30.45 113.55,-112.9 176.19,-605.14 176.19,-605.14"
         style="fill:#7b67f4;fill-opacity:1;fill-rule:nonzero;stroke:none"
         id="path288" />
      <path
         d="m 4741.81,5377.54 c 0,-99.84 -25.66,-269.73 -71.56,-315.84 -20.24,-20.66 -84.4,-53.29 -166.18,-81.79 -10.88,-3.69 -22.19,-7.6 -33.72,-11.09 -96.15,-30.45 -210.12,-53.08 -305.39,-45.46 -152.06,11.96 -176.64,166.62 -161.84,281.68 1.96,15.45 4.78,30.02 7.83,43.51 3.05,13.27 6.52,25.45 10.44,36.11 12.83,36.11 18.71,116.15 22.19,209.25 1.74,49.38 3.05,102.67 4.13,154.87 0,0 23.06,63.74 93.75,69.17 66.35,5.01 97.67,64.39 101.37,71.79 -7.18,-10.01 -16.1,-18.49 -26.32,-25.02 -18.06,-11.53 -40.25,-16.97 -63.3,-13.27 -28.93,4.79 -63.52,20.23 -100.5,57.21 0.88,17.4 1.75,33.93 2.83,49.38 2.18,28.27 4.79,52.63 8.26,71.34 1.53,8.49 3.27,15.66 5.23,21.54 9.57,29.36 47.42,63.07 95.7,95.71 67.87,46.11 156.4,90.27 215.78,117.89 65.04,30.45 139.21,38.72 208.17,18.49 50.03,-14.58 99.19,-44.38 119.85,-104.19 33.5,-97.02 17.84,-474.63 9.14,-541.19 -9.57,-72.65 24.14,-60.03 24.14,-160.09"
         style="fill:#f9486e;fill-opacity:1;fill-rule:nonzero;stroke:none"
         id="path290" />
      <path
         d="m 4689.42,6063.5 c 0,0 -137.45,10.66 -141.88,111.45 -4.42,100.79 85.49,180.6 70,236.91 -15.48,56.31 -31.25,58.7 -31.25,58.7 0,0 -9.92,8.58 -3.42,30.51 6.66,21.87 21.49,25.55 21.49,25.55 0,0 143.11,-4.4 137.28,-132.25 -6.01,-127.81 -76.15,-171.32 -84.66,-222.78 -8.57,-51.63 32.44,-108.09 32.44,-108.09"
         style="fill:#11057c;fill-opacity:1;fill-rule:nonzero;stroke:none"
         id="path292" />
      <path
         d="m 4242.83,5789.74 c -3.7,-7.4 -35.02,-66.78 -101.37,-71.79 -70.69,-5.43 -93.75,-69.17 -93.75,-69.17 1.31,56.34 2.62,111.59 5,159.88 36.98,-36.98 71.57,-52.42 100.5,-57.21 23.05,-3.7 45.24,1.74 63.3,13.27 10.22,6.53 19.14,15.01 26.32,25.02"
         style="fill:#ef3566;fill-opacity:1;fill-rule:nonzero;stroke:none"
         id="path294" />
      <path
         d="m 4426.8,5444.02 v -248.78 c 0,-182.27 -193.55,-297.3 -352.53,-213.73 113.11,15.13 210.13,110.46 210.13,239.42 v 243.26 c 35.06,2.17 66.03,10.09 90.05,18.26 10.81,3.6 21.85,2.15 30.97,-2.88 12.49,-6.49 21.38,-19.7 21.38,-35.55"
         style="fill:#440ae5;fill-opacity:1;fill-rule:nonzero;stroke:none"
         id="path296" />
      <path
         d="m 4284.4,5464.19 v -243.26 c 0,-128.96 -97.02,-224.29 -210.13,-239.42 -2.88,1.44 -6,3.12 -8.88,4.81 l -148.17,85.72 c -74.69,42.99 -120.56,122.48 -120.56,208.69 v 453.87 c 0,22.81 16.58,37.46 35.07,39.86 11.05,1.68 23.05,-1.44 32.18,-10.09 2.16,-1.92 4.08,-4.08 5.76,-6.48 60.52,-85.25 151.05,-197.16 242.31,-252.39 9.84,-6 19.68,-11.29 29.53,-15.85 50.43,-23.05 99.9,-28.58 142.89,-25.46"
         style="fill:#5e19f4;fill-opacity:1;fill-rule:nonzero;stroke:none"
         id="path298" />
      <path
         d="m 4308.29,5463.38 -48,1.47 c 3.47,114.19 -2.25,427.16 -69.57,502.97 -6.41,7.22 -10.97,7.2 -14.73,6.52 -55.72,-9.3 -159.16,-201.38 -214.82,-334.79 l -44.33,18.48 c 24.07,57.75 149.37,346.67 251.23,363.68 15.57,2.59 38.24,0.87 58.56,-22 92.13,-103.73 83.01,-492.36 81.66,-536.33"
         style="fill:#5e19f4;fill-opacity:1;fill-rule:nonzero;stroke:none"
         id="path300" />
      <path
         d="m 4259.79,5840.85 c -0.43,-18.71 -6.52,-36.1 -16.53,-50.46 0,0 -0.22,-0.22 -0.43,-0.65 -7.18,-10.01 -16.1,-18.49 -26.32,-25.02 -18.06,-11.53 -40.25,-16.97 -63.3,-13.27 -28.93,4.79 -63.52,20.23 -100.5,57.21 -1.51,1.31 -2.82,2.83 -4.35,4.35 -12.17,12.62 -24.36,25.45 -36.54,38.5 -113.76,122.03 -221.21,256.89 -284.3,413.29 -57.42,142.04 -104.63,289.29 -157.26,433.08 -11.96,33.06 -24.14,66.12 -36.11,99.18 0,0 29.15,57.86 83.53,68.74 54.38,10.88 76.13,-10.88 76.13,-10.88 51.33,-128.99 99.62,-259.28 159.01,-385.01 41.32,-87.44 97.22,-166.61 162.92,-237.53 55.24,-60.03 102.66,-120.93 148.99,-185.75 14.58,-20.67 29.15,-41.55 43.95,-62.87 21.53,-31.32 35.02,-59.6 42.41,-84.61 6.96,-21.97 9.14,-41.55 8.7,-58.3"
         style="fill:#f9486e;fill-opacity:1;fill-rule:nonzero;stroke:none"
         id="path302" />
      <path
         d="m 4405.67,5479.32 c 0,0 -52.11,-58.59 -121.27,-111.9 -76.12,-58.84 -172.91,-110.94 -243.99,-72.04 -135.91,74.68 -208.68,479.08 -208.68,479.08 l 13.32,0.43 c 16.52,-6.09 22.94,-14.6 24.62,-17 60.52,-85.25 151.05,-197.16 242.31,-252.39 9.84,-6 19.68,-11.29 29.53,-15.85 50.43,-23.05 99.9,-28.58 142.89,-25.46 35.06,2.17 66.03,10.09 90.05,18.26 10.81,3.6 21.85,2.15 30.97,-2.88 l 0.25,-0.25"
         style="fill:#cfc9f7;fill-opacity:1;fill-rule:nonzero;stroke:none"
         id="path304" />
      <path
         d="m 4074.27,5382.97 c 0,-16.19 -7.55,-29.31 -16.86,-29.31 -9.33,0 -16.88,13.12 -16.88,29.31 0,16.19 7.55,29.31 16.88,29.31 9.31,0 16.86,-13.12 16.86,-29.31"
         style="fill:#440ae5;fill-opacity:1;fill-rule:nonzero;stroke:none"
         id="path306" />
      <path
         d="m 9131.16,3488.01 v -454.75 l -262.64,151.58 -131.97,530.29 394.61,-227.12"
         style="fill:#edeaf9;fill-opacity:1;fill-rule:nonzero;stroke:none"
         id="path308" />
      <path
         d="M 9525.07,3715.83 9393.8,3184.84 9131.16,3033.26 v 454.75 l 393.91,227.82"
         style="fill:#cfc9f7;fill-opacity:1;fill-rule:nonzero;stroke:none"
         id="path310" />
      <path
         d="m 8736.55,3715.13 394.6,227.74 393.92,-227.04 -393.91,-227.82 -394.61,227.12"
         style="fill:#5e19f4;fill-opacity:1;fill-rule:nonzero;stroke:none"
         id="path312" />
      <path
         d="m 9090.53,3667.33 c 0,0 -11.4,269.99 -155.91,444.92 -144.5,174.93 -327.03,422.1 -182.53,463.93 144.51,41.83 327.04,-163.51 391.68,-380.27 64.64,-216.76 -10.14,-528.58 -10.14,-528.58 h -43.1"
         style="fill:#bebdf9;fill-opacity:1;fill-rule:nonzero;stroke:none"
         id="path314" />
      <path
         d="m 9114.61,3662.78 c -2.5,0 -4.53,2.04 -4.54,4.54 -0.01,0.72 -0.44,73.83 -10.45,168.85 -9.22,87.57 -28.68,212.18 -69.06,308.55 -77.29,184.52 -173.01,283.18 -173.96,284.16 -1.77,1.79 -1.74,4.67 0.04,6.42 1.8,1.77 4.68,1.74 6.44,-0.05 0.97,-0.98 97.85,-100.77 175.87,-287.02 40.81,-97.42 60.45,-223 69.73,-311.2 10.04,-95.46 10.47,-168.94 10.48,-169.68 0.01,-2.51 -2.01,-4.55 -4.53,-4.57 0,0 -0.01,0 -0.02,0"
         style="fill:#f4f4f4;fill-opacity:1;fill-rule:nonzero;stroke:none"
         id="path316" />
      <path
         d="m 9183.81,3667.33 c 0,0 9.2,217.66 125.7,358.69 116.49,141.01 263.64,340.28 147.14,374 -116.49,33.72 -263.64,-131.82 -315.76,-306.56 -52.12,-174.75 8.18,-426.13 8.18,-426.13 h 34.74"
         style="fill:#fe617c;fill-opacity:1;fill-rule:nonzero;stroke:none"
         id="path318" />
      <path
         d="m 9164.4,3662.78 c -0.01,0 -0.01,0 -0.02,0 -2.51,0.01 -4.54,2.06 -4.53,4.57 0.01,0.59 0.35,59.89 8.46,136.88 7.49,71.16 23.33,172.5 56.27,251.13 62.96,150.3 141.19,230.87 141.98,231.67 1.75,1.79 4.62,1.82 6.42,0.05 1.79,-1.76 1.82,-4.64 0.05,-6.42 -0.76,-0.8 -77.82,-80.24 -140.07,-228.81 -62.26,-148.66 -64.01,-382.19 -64.02,-384.53 0,-2.5 -2.04,-4.54 -4.54,-4.54"
         style="fill:#f4f4f4;fill-opacity:1;fill-rule:nonzero;stroke:none"
         id="path320" />
      <path
         d="m 5595.57,5078.09 v -299.94 l -173.23,99.98 -87.04,349.76 260.27,-149.8"
         style="fill:#edeaf9;fill-opacity:1;fill-rule:nonzero;stroke:none"
         id="path322" />
      <path
         d="m 5855.39,5228.35 -86.59,-350.22 -173.23,-99.98 v 299.94 l 259.82,150.26"
         style="fill:#cfc9f7;fill-opacity:1;fill-rule:nonzero;stroke:none"
         id="path324" />
      <path
         d="m 5335.3,5227.89 260.26,150.21 259.83,-149.75 -259.82,-150.26 -260.27,149.8"
         style="fill:#5e19f4;fill-opacity:1;fill-rule:nonzero;stroke:none"
         id="path326" />
      <path
         d="m 5568.77,5196.36 c 0,0 -7.52,178.08 -102.83,293.46 -95.31,115.38 -215.7,278.41 -120.39,306 95.31,27.58 215.7,-107.86 258.34,-250.82 42.64,-142.97 -6.69,-348.64 -6.69,-348.64 h -28.43"
         style="fill:#5e19f4;fill-opacity:1;fill-rule:nonzero;stroke:none"
         id="path328" />
      <path
         d="m 5584.66,5193.37 c -1.65,0 -2.99,1.33 -3,2.98 0,0.48 -0.28,48.7 -6.88,111.38 -6.08,57.75 -18.93,139.94 -45.56,203.51 -50.98,121.7 -114.11,186.78 -114.74,187.42 -1.17,1.18 -1.15,3.08 0.04,4.24 1.18,1.16 3.07,1.15 4.23,-0.04 0.65,-0.65 64.55,-66.46 116,-189.3 26.92,-64.26 39.87,-147.09 46,-205.27 6.63,-62.96 6.91,-111.43 6.91,-111.91 0.01,-1.66 -1.33,-3.01 -2.99,-3.01 h -0.01"
         style="fill:#f4f4f4;fill-opacity:1;fill-rule:nonzero;stroke:none"
         id="path330" />
      <path
         d="m 5630.31,5196.36 c 0,0 6.06,143.57 82.9,236.58 76.83,93.01 173.88,224.44 97.05,246.69 -76.84,22.24 -173.89,-86.95 -208.26,-202.2 -34.38,-115.26 5.39,-281.07 5.39,-281.07 h 22.92"
         style="fill:#fe617c;fill-opacity:1;fill-rule:nonzero;stroke:none"
         id="path332" />
      <path
         d="m 5617.49,5193.37 h -0.01 c -1.66,0 -2.98,1.35 -2.98,3.01 0,0.39 0.23,39.49 5.57,90.28 4.94,46.93 15.39,113.77 37.12,165.64 41.53,99.14 93.13,152.28 93.64,152.8 1.16,1.18 3.05,1.2 4.24,0.03 1.18,-1.15 1.2,-3.05 0.04,-4.24 -0.51,-0.51 -51.34,-52.92 -92.38,-150.91 -41.09,-98.05 -42.23,-252.08 -42.24,-253.63 0,-1.65 -1.35,-2.98 -3,-2.98"
         style="fill:#f4f4f4;fill-opacity:1;fill-rule:nonzero;stroke:none"
         id="path334" />
    </g>
  </g>
</svg>
